<?xml version="1.0" encoding="utf-8"?>
<!-- Generator: Adobe Illustrator 16.0.0, SVG Export Plug-In . SVG Version: 6.00 Build 0)  -->
<!DOCTYPE svg PUBLIC "-//W3C//DTD SVG 1.1//EN" "http://www.w3.org/Graphics/SVG/1.1/DTD/svg11.dtd">
<svg version="1.1" id="Ebene_1" xmlns="http://www.w3.org/2000/svg" xmlns:xlink="http://www.w3.org/1999/xlink" x="0px" y="0px"
	 width="138.135px" height="200px" viewBox="0 0 138.135 200" enable-background="new 0 0 138.135 200" xml:space="preserve">
<path fill="#010202" d="M108.164,56.344"/>
<path fill="#010202" d="M28.292,23.065l-0.35,0.354c-0.705,0.352-0.705,0.352-0.705,0.703c-0.35,0.352-0.35,0.701-0.35,1.055
	l15.467,141.673c0.354,4.92,3.16,7.381,8.088,8.086h39.02c0.354,0,0.354,0,0.354,0c5.273-0.705,7.734-3.166,8.088-8.086
	c0,0,10.758-120.53,12.041-130.261c0.412-3.129,1.996-12.201,0.449-13.128c-0.223-0.133-0.576-0.307-1.115-0.395
	c-0.264-0.043-6.579-0.026-6.908-0.025C93.941,23.065,28.292,23.065,28.292,23.065z M107.263,27.569L94.386,166.496l0,0
	c-0.354,2.816-2.111,4.574-5.273,4.924H51.142c-3.162-0.35-4.918-2.107-5.273-4.924l0,0L30.753,26.581 M105.984,33.536
	 M91.57,158.765 M39.273,34.61"/>
</svg>
