<?xml version="1.0" encoding="utf-8"?>
<!-- Generator: Adobe Illustrator 16.0.0, SVG Export Plug-In . SVG Version: 6.00 Build 0)  -->
<!DOCTYPE svg PUBLIC "-//W3C//DTD SVG 1.1//EN" "http://www.w3.org/Graphics/SVG/1.1/DTD/svg11.dtd">
<svg version="1.1" id="Ebene_1" xmlns="http://www.w3.org/2000/svg" xmlns:xlink="http://www.w3.org/1999/xlink" x="0px" y="0px"
	 width="138.135px" height="200px" viewBox="0 0 138.135 200" enable-background="new 0 0 138.135 200" xml:space="preserve">
<path fill="#010202" d="M61.284,27.804h-11.6l-20.393-0.353l-0.35,0.353c-0.705,0.353-0.705,0.353-0.705,0.704
	c-0.35,0.352-0.35,0.701-0.35,1.054l15.467,141.673c0.354,4.92,3.16,7.381,8.088,8.086h39.02c0.354,0,0.354,0,0.354,0
	c5.273-0.705,7.734-3.166,8.088-8.086c0,0,10.758-120.53,12.041-130.261c0.412-3.128,1.961-11.585,0.984-12.522
	c-0.188-0.18-0.576-0.307-1.115-0.395c-0.264-0.043-6.58-0.001-6.908-0.025C100.068,27.747,61.284,27.804,61.284,27.804z
	 M108.263,31.955L95.386,170.881l0,0c-0.354,2.816-2.111,4.574-5.273,4.924H52.142c-3.162-0.35-4.918-2.107-5.273-4.924l0,0
	L31.753,30.967 M106.984,37.921 M92.57,163.15 M40.272,38.996"/>
<polygon fill="#D32016" points="35.495,36.176 40.495,79.176 99.496,79.176 103.496,36.176 "/>
<path fill="#5EB130" d="M44.353,114.373l5.221,51.971c0,3.865,2.109,5.623,6.328,6.326h30.231c3.869-0.703,6.328-2.461,6.328-6.326
	l5.322-51.835"/>
<polygon fill="#C0398D" points="40.565,82.842 44.353,110.842 97.232,110.842 99.783,82.842 "/>
</svg>
