<?xml version="1.0" encoding="utf-8"?>
<!-- Generator: Adobe Illustrator 16.0.0, SVG Export Plug-In . SVG Version: 6.00 Build 0)  -->
<!DOCTYPE svg PUBLIC "-//W3C//DTD SVG 1.1//EN" "http://www.w3.org/Graphics/SVG/1.1/DTD/svg11.dtd">
<svg version="1.1" id="Ebene_1" xmlns="http://www.w3.org/2000/svg" xmlns:xlink="http://www.w3.org/1999/xlink" x="0px" y="0px"
	 width="138.135px" height="200px" viewBox="0 0 138.135 200" enable-background="new 0 0 138.135 200" xml:space="preserve">
<g>
	<path fill="#010202" d="M60.896,24.703H49.295l-20.393-0.352l-0.35,0.352c-0.704,0.352-0.704,0.352-0.704,0.704
		c-0.351,0.352-0.351,0.702-0.351,1.054l15.467,141.674c0.354,4.92,3.161,7.381,8.088,8.086h39.021c0.354,0,0.354,0,0.354,0
		c5.273-0.705,7.734-3.166,8.088-8.086c0,0,10.758-120.531,12.041-130.262c0.412-3.128,1.961-11.585,0.984-12.522
		c-0.188-0.18-0.576-0.307-1.116-0.395c-0.263-0.043-6.579-0.001-6.907-0.026C99.679,24.646,60.896,24.703,60.896,24.703z
		 M107.874,28.854L94.996,167.781l0,0c-0.354,2.816-2.111,4.574-5.273,4.924h-37.97c-3.162-0.35-4.919-2.107-5.273-4.924l0,0
		L31.364,27.866 M106.594,34.82 M41.073,88.079l8.222,71.971c0,3.865,2.108,5.623,6.327,6.326h30.231
		c3.869-0.703,6.327-2.461,6.327-6.326c0,0,2.078-45.783,6.322-71.762 M39.884,35.896"/>
	<polygon fill="#D32016" points="35.105,33.075 41.105,84.075 98.105,84.075 103.105,33.075 	"/>
</g>
</svg>
