<?xml version="1.0" encoding="utf-8"?>
<!-- Generator: Adobe Illustrator 16.0.0, SVG Export Plug-In . SVG Version: 6.00 Build 0)  -->
<!DOCTYPE svg PUBLIC "-//W3C//DTD SVG 1.1//EN" "http://www.w3.org/Graphics/SVG/1.1/DTD/svg11.dtd">
<svg version="1.1" id="Ebene_1" xmlns="http://www.w3.org/2000/svg" xmlns:xlink="http://www.w3.org/1999/xlink" x="0px" y="0px"
	 width="781px" height="63.008px" viewBox="0 0 781 63.008" enable-background="new 0 0 781 63.008" xml:space="preserve">
<path fill="#010202" d="M1072.991-74.645h-11.601l-20.393-0.352l-0.35,0.352c-0.704,0.352-0.704,0.352-0.704,0.704
	c-0.351,0.352-0.351,0.702-0.351,1.054l15.467,141.674c0.354,4.92,3.161,7.381,8.088,8.086h39.021c0.354,0,0.354,0,0.354,0
	c5.273-0.705,7.734-3.166,8.088-8.086c0,0,10.758-120.531,12.041-130.262c0.412-3.128,1.961-11.585,0.984-12.522
	c-0.188-0.18-0.576-0.307-1.116-0.395c-0.263-0.043-6.579-0.001-6.907-0.026C1111.774-74.702,1072.991-74.645,1072.991-74.645z
	 M1119.969-70.493l-12.878,138.926l0,0c-0.354,2.816-2.111,4.574-5.273,4.924h-37.97c-3.162-0.35-4.919-2.107-5.273-4.924l0,0
	l-15.115-139.915 M1118.689-64.528 M1053.168-11.269l8.222,71.971c0,3.865,2.108,5.623,6.327,6.326h30.231
	c3.869-0.703,6.327-2.461,6.327-6.326c0,0,2.078-45.783,6.323-71.762 M1051.979-63.452"/>
<g>
	<g>
		<path fill="#D32016" d="M880.906-34.891c2.351,6.218,4.093,8.503,7.075,14.579c2.894,5.896-1.395,11.822-7.075,11.822
			c-5.681,0-9.969-5.925-7.075-11.822C876.812-26.387,878.451-28.672,880.906-34.891z"/>
	</g>
	<rect x="895.034" y="-28.5" fill="none" width="109.5" height="28.5"/>
	<text transform="matrix(1 0 0 1 895.0337 -14.2603)" fill="#D32016" font-family="'DIN-Black'" font-size="20">Sangria</text>
</g>
<g>
	<g>
		<path fill="#010202" d="M880.906-74.081c2.351,6.218,4.093,8.503,7.075,14.579c2.894,5.896-1.395,11.822-7.075,11.822
			c-5.681,0-9.969-5.925-7.075-11.822C876.812-65.578,878.451-67.863,880.906-74.081z"/>
	</g>
	<rect x="895.034" y="-67.69" fill="none" width="173" height="46.5"/>
	<text transform="matrix(1 0 0 1 895.0337 -53.4507)" fill="#010202" font-family="'DIN-Black'" font-size="20">Jägermeister</text>
</g>
<polygon fill="#D32016" points="1047.201,-66.272 1053.201,-15.272 1110.201,-15.272 1115.201,-66.272 "/>
<path fill="#010202" d="M1379.686-74.645h-11.6l-20.393-0.353l-0.35,0.353c-0.705,0.353-0.705,0.353-0.705,0.704
	c-0.35,0.352-0.35,0.701-0.35,1.054l15.467,141.673c0.354,4.92,3.16,7.381,8.088,8.086h39.02c0.354,0,0.354,0,0.354,0
	c5.273-0.705,7.734-3.166,8.088-8.086c0,0,10.758-120.53,12.041-130.261c0.412-3.128,1.961-11.585,0.984-12.522
	c-0.188-0.18-0.576-0.307-1.115-0.395c-0.264-0.043-6.58-0.001-6.908-0.025C1418.469-74.701,1379.686-74.645,1379.686-74.645z
	 M1426.664-70.493l-12.877,138.926l0,0c-0.354,2.816-2.111,4.574-5.273,4.924h-37.971c-3.162-0.35-4.918-2.107-5.273-4.924l0,0
	l-15.115-139.914 M1425.385-64.527 M1410.971,60.702 M1358.674-63.452"/>
<g>
	<g>
		<path fill="#FCEC4D" d="M1187.601-74.997c2.351,6.219,4.093,8.504,7.075,14.579c2.894,5.896-1.395,11.821-7.075,11.821
			c-5.681,0-9.969-5.925-7.075-11.821C1183.507-66.493,1185.146-68.778,1187.601-74.997z"/>
	</g>
</g>
<rect x="1201.729" y="-68.606" fill="none" width="109.5" height="28.5"/>
<text transform="matrix(1 0 0 1 1201.729 -54.3662)" fill="#FCEC4D" font-family="'DIN-Black'" font-size="20">Eierlikör</text>
<g>
	<g>
		<path fill="#5EB130" d="M1187.601-37.497c2.351,6.219,4.093,8.504,7.075,14.579c2.894,5.896-1.395,11.821-7.075,11.821
			c-5.681,0-9.969-5.925-7.075-11.821C1183.507-28.993,1185.146-31.278,1187.601-37.497z"/>
	</g>
</g>
<rect x="1201.729" y="-31.106" fill="none" width="173" height="46.5"/>
<text transform="matrix(1 0 0 1 1201.729 -16.8662)" fill="#5EB130" font-family="'DIN-Black'" font-size="20">Absinth</text>
<polygon fill="#010202" points="1353.896,-66.272 1358.896,-23.272 1417.896,-23.272 1421.896,-66.272 "/>
<g>
	<path fill="#010202" d="M1187.601,0.938c2.351,6.219,4.093,8.504,7.075,14.579c2.894,5.896-1.395,11.821-7.075,11.821
		c-5.681,0-9.969-5.925-7.075-11.821C1183.507,9.441,1185.146,7.156,1187.601,0.938z"/>
</g>
<rect x="1201.729" y="7.328" fill="none" width="173" height="46.5"/>
<text transform="matrix(1 0 0 1 1201.729 21.5684)" fill="#010202" font-family="'DIN-Black'" font-size="20">Jägermeister</text>
<path fill="#5EB130" d="M1362.754,11.925l5.221,51.971c0,3.865,2.109,5.623,6.328,6.326h30.23c3.869-0.703,6.328-2.461,6.328-6.326
	l5.322-51.835"/>
<polygon fill="#FCEC4D" points="1358.967,-19.606 1362.754,8.394 1415.633,8.394 1418.184,-19.606 "/>
<path fill="#010202" d="M1375.44,124.351h-11.602l-20.393-0.352l-0.35,0.352c-0.703,0.353-0.703,0.353-0.703,0.704
	c-0.352,0.353-0.352,0.702-0.352,1.054l15.467,141.673c0.354,4.92,3.162,7.381,8.088,8.086h39.021c0.354,0,0.354,0,0.354,0
	c5.273-0.705,7.734-3.166,8.088-8.086c0,0,10.758-120.531,12.041-130.261c0.412-3.127,1.961-11.584,0.984-12.521
	c-0.188-0.18-0.576-0.307-1.117-0.395c-0.262-0.043-6.578-0.002-6.906-0.025C1414.224,124.294,1375.44,124.351,1375.44,124.351z
	 M1422.419,128.503l-12.879,138.925l0,0c-0.354,2.816-2.111,4.574-5.273,4.924h-37.969c-3.162-0.35-4.92-2.107-5.273-4.924l0,0
	l-15.115-139.914 M1421.138,134.468 M1355.618,187.727l8.221,71.971c0,3.865,2.109,5.623,6.328,6.326h30.23
	c3.869-0.703,6.328-2.461,6.328-6.326c0,0,2.078-45.783,6.322-71.762 M1354.429,135.544"/>
<g>
	<g>
		<path fill="#010202" d="M1183.355,157.724c2.351,6.219,4.093,8.504,7.075,14.578c2.894,5.896-1.395,11.822-7.075,11.822
			c-5.681,0-9.969-5.925-7.075-11.822C1179.261,166.228,1180.9,163.942,1183.355,157.724z"/>
	</g>
</g>
<rect x="1197.483" y="164.114" fill="none" width="197.215" height="31.109"/>
<text transform="matrix(1 0 0 1 1197.4829 178.354)" fill="#010202" font-family="'DIN-Black'" font-size="20">Jägermeister</text>
<g>
	<path fill="#5EB130" d="M1183.355,121.224c2.351,6.219,4.093,8.504,7.075,14.578c2.894,5.896-1.395,11.822-7.075,11.822
		c-5.681,0-9.969-5.926-7.075-11.822C1179.261,129.728,1180.9,127.442,1183.355,121.224z"/>
</g>
<rect x="1197.483" y="127.614" fill="none" width="173" height="23.25"/>
<text transform="matrix(1 0 0 1 1197.4829 141.854)" fill="#5EB130" font-family="'DIN-Black'" font-size="20">Absinth</text>
<polygon fill="#5EB130" points="1349.649,132.724 1355.649,183.723 1412.649,183.723 1417.649,132.724 "/>
<path fill="#010202" d="M1121.92,346.576"/>
<g>
	<g>
		<path fill="#5EB130" d="M884.138,364.831c2.351,6.219,4.093,8.504,7.075,14.578c2.894,5.896-1.395,11.822-7.075,11.822
			c-5.681,0-9.969-5.926-7.075-11.822C880.044,373.334,881.683,371.049,884.138,364.831z"/>
	</g>
</g>
<rect x="898.266" y="371.221" fill="none" width="197.215" height="31.109"/>
<text transform="matrix(1 0 0 1 898.2656 385.4614)" fill="#5EB130" font-family="'DIN-Black'" font-size="20">Absinth</text>
<g>
	<path fill="#D32016" d="M884.138,326.331c2.351,6.219,4.093,8.504,7.075,14.578c2.894,5.896-1.395,11.822-7.075,11.822
		c-5.681,0-9.969-5.926-7.075-11.822C880.044,334.834,881.683,332.549,884.138,326.331z"/>
</g>
<rect x="898.266" y="332.721" fill="none" width="173" height="23.25"/>
<text transform="matrix(1 0 0 1 898.2656 346.9614)" fill="#D32016" font-family="'DIN-Black'" font-size="20">Sangria</text>
<path fill="#010202" d="M1070.041,313.65h-11.6l-20.393-0.354l-0.35,0.354c-0.705,0.352-0.705,0.352-0.705,0.703
	c-0.35,0.352-0.35,0.701-0.35,1.055l15.467,141.673c0.354,4.92,3.16,7.381,8.088,8.086h39.02c0.354,0,0.354,0,0.354,0
	c5.273-0.705,7.734-3.166,8.088-8.086c0,0,10.758-120.53,12.041-130.261c0.412-3.129,1.961-11.586,0.984-12.523
	c-0.188-0.18-0.576-0.307-1.115-0.395c-0.264-0.043-6.58,0-6.908-0.025C1108.824,313.593,1070.041,313.65,1070.041,313.65z
	 M1117.02,317.8l-12.877,138.927l0,0c-0.354,2.816-2.111,4.574-5.273,4.924h-37.971c-3.162-0.35-4.918-2.107-5.273-4.924l0,0
	l-15.115-139.915 M1115.74,323.767 M1101.326,448.997 M1049.029,324.841"/>
<polygon fill="#D32016" points="1044.252,322.021 1053.109,396.211 1106.252,396.021 1112.252,322.021 "/>
<path fill="#5EB130" d="M1053.109,400.219l5.221,51.971c0,3.865,2.109,5.623,6.328,6.326h30.23c3.869-0.703,6.328-2.461,6.328-6.326
	l5.322-51.836"/>
<path fill="#010202" d="M1119.474,154.068"/>
<g>
	<g>
		<g>
			<path fill="#010202" d="M885.692,122.108c2.351,6.219,4.093,8.504,7.075,14.578c2.894,5.896-1.395,11.822-7.075,11.822
				c-5.681,0-9.969-5.926-7.075-11.822C881.598,130.612,883.237,128.327,885.692,122.108z"/>
		</g>
	</g>
	<rect x="899.82" y="128.499" fill="none" width="197.215" height="31.109"/>
	<text transform="matrix(1 0 0 1 899.8198 142.7388)" fill="#010202" font-family="'DIN-Black'" font-size="20">Jägermeister</text>
	<g>
		<g>
			<path fill="#FCEC4D" d="M885.692,161.83c2.351,6.219,4.093,8.504,7.075,14.578c2.894,5.896-1.395,11.822-7.075,11.822
				c-5.681,0-9.969-5.926-7.075-11.822C881.598,170.333,883.237,168.048,885.692,161.83z"/>
		</g>
	</g>
	<rect x="899.82" y="168.22" fill="none" width="173" height="23.25"/>
	<text transform="matrix(1 0 0 1 899.8198 182.46)" fill="#FCEC4D" font-family="'DIN-Black'" font-size="20">Eierlikör</text>
	<path fill="#010202" d="M1071.595,121.142h-11.6l-20.393-0.354l-0.35,0.354c-0.705,0.352-0.705,0.352-0.705,0.703
		c-0.35,0.352-0.35,0.701-0.35,1.055l15.467,141.673c0.354,4.92,3.16,7.381,8.088,8.086h39.02c0.354,0,0.354,0,0.354,0
		c5.273-0.705,7.734-3.166,8.088-8.086c0,0,10.758-120.53,12.041-130.261c0.412-3.129,1.961-11.586,0.984-12.523
		c-0.188-0.18-0.576-0.307-1.115-0.395c-0.264-0.043-6.58,0-6.908-0.025C1110.378,121.085,1071.595,121.142,1071.595,121.142z
		 M1118.574,125.292l-12.877,138.927l0,0c-0.354,2.816-2.111,4.574-5.273,4.924h-37.971c-3.162-0.35-4.918-2.107-5.273-4.924l0,0
		l-15.115-139.915 M1117.294,131.259 M1102.88,256.489 M1050.583,132.333"/>
	<polygon fill="#010202" points="1045.806,129.513 1054.664,203.704 1107.806,203.513 1113.806,129.513 	"/>
	<path fill="#FCEC4D" d="M1054.664,207.711l5.221,51.971c0,3.865,2.109,5.623,6.328,6.326h30.23
		c3.869-0.703,6.328-2.461,6.328-6.326l5.322-51.836"/>
</g>
<path fill="#010202" d="M1516.269,147.052"/>
<g>
	<g>
		<path fill="#FCEC4D" d="M1488.299,152.595c2.35,6.219,4.094,8.504,7.074,14.579c2.895,5.896-1.395,11.821-7.074,11.821
			c-5.682,0-9.969-5.925-7.074-11.821C1484.205,161.099,1485.844,158.813,1488.299,152.595z"/>
	</g>
</g>
<rect x="1502.426" y="158.985" fill="none" width="109.5" height="28.5"/>
<text transform="matrix(1 0 0 1 1502.4258 173.2256)" fill="#FCEC4D" font-family="'DIN-Black'" font-size="20">Eierlikör</text>
<g>
	<g>
		<path fill="#5EB130" d="M1488.299,190.094c2.35,6.219,4.094,8.504,7.074,14.58c2.895,5.896-1.395,11.821-7.074,11.821
			c-5.682,0-9.969-5.925-7.074-11.821C1484.205,198.598,1485.844,196.313,1488.299,190.094z"/>
	</g>
</g>
<rect x="1502.426" y="196.485" fill="none" width="173" height="46.501"/>
<text transform="matrix(1 0 0 1 1502.4258 210.7251)" fill="#5EB130" font-family="'DIN-Black'" font-size="20">Absinth</text>
<path fill="#010202" d="M1682.811,121.142h-11.6l-20.393-0.353l-0.35,0.353c-0.705,0.353-0.705,0.353-0.705,0.704
	c-0.35,0.352-0.35,0.701-0.35,1.054l15.467,141.673c0.354,4.92,3.16,7.381,8.088,8.086h39.02c0.354,0,0.354,0,0.354,0
	c5.273-0.705,7.734-3.166,8.088-8.086c0,0,10.758-120.531,12.041-130.261c0.412-3.128,1.961-11.585,0.984-12.522
	c-0.188-0.18-0.576-0.307-1.115-0.395c-0.264-0.043-6.58-0.001-6.908-0.025C1721.594,121.085,1682.811,121.142,1682.811,121.142z
	 M1729.789,125.293l-12.877,138.926l0,0c-0.354,2.816-2.111,4.574-5.273,4.924h-37.971c-3.162-0.35-4.918-2.107-5.273-4.924l0,0
	l-15.115-139.915 M1728.51,131.259 M1714.096,256.489 M1661.799,132.334"/>
<polygon fill="#D32016" points="1657.021,129.514 1662.021,172.514 1721.021,172.514 1725.021,129.514 "/>
<path fill="#5EB130" d="M1665.879,207.711l5.221,51.971c0,3.865,2.109,5.623,6.328,6.326h30.23c3.869-0.703,6.328-2.461,6.328-6.326
	l5.322-51.836"/>
<polygon fill="#FCEC4D" points="1662.092,176.18 1665.879,204.18 1718.758,204.18 1721.309,176.18 "/>
<g>
	<g>
		<path fill="#D32016" d="M1488.299,116.704c2.352,6.218,4.094,8.503,7.075,14.578c2.894,5.896-1.395,11.822-7.075,11.822
			c-5.68,0-9.969-5.926-7.074-11.822C1484.205,125.207,1485.845,122.922,1488.299,116.704z"/>
	</g>
	<rect x="1502.428" y="123.095" fill="none" width="109.5" height="28.5"/>
	<text transform="matrix(1 0 0 1 1502.4277 137.334)" fill="#D32016" font-family="'DIN-Black'" font-size="20">Sangria</text>
</g>
<path fill="#010202" d="M1518.991,44.957"/>
<path fill="#010202" d="M1681.384-74.644h-11.6l-20.393-0.353l-0.35,0.353c-0.705,0.353-0.705,0.353-0.705,0.704
	c-0.35,0.352-0.35,0.701-0.35,1.054l15.467,141.673c0.354,4.92,3.16,7.381,8.088,8.086h39.02c0.354,0,0.354,0,0.354,0
	c5.273-0.705,7.734-3.166,8.088-8.086c0,0,10.758-120.53,12.041-130.261c0.412-3.128,1.961-11.585,0.984-12.522
	c-0.188-0.18-0.576-0.307-1.115-0.395c-0.264-0.043-6.58-0.001-6.908-0.025C1720.167-74.701,1681.384-74.644,1681.384-74.644z
	 M1728.362-70.493l-12.877,138.926l0,0c-0.354,2.816-2.111,4.574-5.273,4.924h-37.971c-3.162-0.35-4.918-2.107-5.273-4.924l0,0
	l-15.115-139.914 M1727.083-64.527 M1712.669,60.703 M1660.372-63.452"/>
<g>
	<path fill="#D32016" d="M1489.3-74.997c2.35,6.219,4.094,8.504,7.074,14.579c2.895,5.896-1.395,11.821-7.074,11.821
		c-5.682,0-9.969-5.925-7.074-11.821C1485.206-66.493,1486.845-68.778,1489.3-74.997z"/>
</g>
<rect x="1503.427" y="-68.606" fill="none" width="109.5" height="28.5"/>
<text transform="matrix(1 0 0 1 1503.4277 -54.3657)" fill="#D32016" font-family="'DIN-Black'" font-size="20">Sangria</text>
<g>
	<g>
		<path fill="#C0398D" d="M1489.3-37.497c2.35,6.219,4.094,8.504,7.074,14.579c2.895,5.896-1.395,11.821-7.074,11.821
			c-5.682,0-9.969-5.925-7.074-11.821C1485.206-28.993,1486.845-31.278,1489.3-37.497z"/>
	</g>
</g>
<rect x="1503.427" y="-31.106" fill="none" width="173" height="46.5"/>
<text transform="matrix(1 0 0 1 1503.4277 -16.8657)" fill="#C0398D" font-family="'DIN-Black'" font-size="20">Rotkäppchen</text>
<polygon fill="#D32016" points="1655.595,-66.272 1660.595,-23.272 1719.595,-23.272 1723.595,-66.272 "/>
<g>
	<g>
		<path fill="#5EB130" d="M1489.3,0.938c2.35,6.219,4.094,8.504,7.074,14.579c2.895,5.896-1.395,11.821-7.074,11.821
			c-5.682,0-9.969-5.925-7.074-11.821C1485.206,9.442,1486.845,7.157,1489.3,0.938z"/>
	</g>
</g>
<rect x="1503.427" y="7.329" fill="none" width="173" height="46.5"/>
<text transform="matrix(1 0 0 1 1503.4277 21.5688)" fill="#5EB130" font-family="'DIN-Black'" font-size="20">Absinth</text>
<path fill="#5EB130" d="M1664.452,11.925l5.221,51.971c0,3.865,2.109,5.623,6.328,6.326h30.23c3.869-0.703,6.328-2.461,6.328-6.326
	l5.322-51.835"/>
<polygon fill="#C0398D" points="1660.665,-19.606 1664.452,8.394 1717.331,8.394 1719.882,-19.606 "/>
<path fill="#D32016" d="M1215.75,335.599h-5.99l-10.531-0.11l-0.181,0.11c-0.363,0.109-0.363,0.109-0.363,0.22
	c-0.181,0.11-0.181,0.219-0.181,0.33l7.987,44.314c0.182,1.539,1.631,2.309,4.176,2.529h20.15c0.183,0,0.183,0,0.183,0
	c2.723-0.221,3.994-0.99,4.177-2.529c0,0,5.556-37.701,6.218-40.745c0.213-0.979,1.013-3.624,0.508-3.917
	c-0.097-0.057-0.297-0.096-0.576-0.124c-0.136-0.013-3.398,0-3.568-0.008C1235.778,335.582,1215.75,335.599,1215.75,335.599z
	 M1239.349,338.763 M1231.905,377.935 M1204.898,339.099"/>
<path fill="#5EB130" d="M1282.753,335.599h-5.99l-10.531-0.11l-0.182,0.11c-0.363,0.109-0.363,0.109-0.363,0.22
	c-0.18,0.11-0.18,0.219-0.18,0.33l7.986,44.314c0.183,1.539,1.632,2.309,4.177,2.529h20.149c0.184,0,0.184,0,0.184,0
	c2.723-0.221,3.994-0.99,4.177-2.529c0,0,5.556-37.701,6.218-40.745c0.213-0.979,1.014-3.624,0.508-3.917
	c-0.096-0.057-0.297-0.096-0.575-0.124c-0.136-0.013-3.398,0-3.567-0.008C1302.78,335.582,1282.753,335.599,1282.753,335.599z
	 M1306.353,338.763 M1298.908,377.935 M1271.901,339.099"/>
<path fill="#FCEC4D" d="M1349.756,335.599h-5.99l-10.531-0.11l-0.182,0.11c-0.363,0.109-0.363,0.109-0.363,0.22
	c-0.18,0.11-0.18,0.219-0.18,0.33l7.986,44.314c0.184,1.539,1.633,2.309,4.178,2.529h20.148c0.184,0,0.184,0,0.184,0
	c2.723-0.221,3.994-0.99,4.178-2.529c0,0,5.555-37.701,6.217-40.745c0.213-0.979,1.014-3.624,0.508-3.917
	c-0.096-0.057-0.297-0.096-0.574-0.124c-0.137-0.013-3.398,0-3.568-0.008C1369.783,335.582,1349.756,335.599,1349.756,335.599z
	 M1373.355,338.763 M1365.912,377.935 M1338.904,339.099"/>
<path fill="#C0398D" d="M1416.76,335.599h-5.99l-10.531-0.11l-0.182,0.11c-0.363,0.109-0.363,0.109-0.363,0.22
	c-0.18,0.11-0.18,0.219-0.18,0.33l7.986,44.314c0.183,1.539,1.632,2.309,4.177,2.529h20.149c0.184,0,0.184,0,0.184,0
	c2.723-0.221,3.994-0.99,4.177-2.529c0,0,5.556-37.701,6.218-40.745c0.213-0.979,1.014-3.624,0.508-3.917
	c-0.096-0.057-0.297-0.096-0.575-0.124c-0.136-0.013-3.398,0-3.567-0.008C1436.787,335.582,1416.76,335.599,1416.76,335.599z
	 M1440.359,338.763 M1432.915,377.935 M1405.908,339.099"/>
<path fill="#010202" stroke="#010202" stroke-width="2" stroke-miterlimit="10" d="M1483.763,335.599h-5.99l-10.531-0.11
	l-0.182,0.11c-0.363,0.109-0.363,0.109-0.363,0.22c-0.18,0.11-0.18,0.219-0.18,0.33l7.986,44.314
	c0.183,1.539,1.632,2.309,4.177,2.529h20.149c0.184,0,0.184,0,0.184,0c2.723-0.221,3.994-0.99,4.177-2.529
	c0,0,5.556-37.701,6.218-40.745c0.213-0.979,1.014-3.624,0.508-3.917c-0.096-0.057-0.297-0.096-0.575-0.124
	c-0.136-0.013-3.398,0-3.567-0.008C1503.79,335.582,1483.763,335.599,1483.763,335.599z M1507.362,338.763 M1499.918,377.935
	 M1472.911,339.099"/>
<g>
	<g>
		<path fill="#FCEC4D" d="M205.601,18.192c2.351,6.219,4.093,8.504,7.075,14.579c2.894,5.896-1.395,11.821-7.075,11.821
			c-5.681,0-9.969-5.925-7.075-11.821C201.507,26.696,203.146,24.411,205.601,18.192z"/>
	</g>
</g>
<g>
	<path fill="#FCEC4D" d="M221.169,38.823v-14.24h9.66v3.12h-6.18v2.38h5.28v3.12h-5.28v2.5h6.18v3.12H221.169z"/>
	<path fill="#FCEC4D" d="M233.129,26.963v-2.5h3.26v2.5H233.129z M233.129,38.823v-10.34h3.26v10.34H233.129z"/>
	<path fill="#FCEC4D" d="M241.608,34.503c0,0.445,0.163,0.84,0.49,1.184c0.326,0.344,0.796,0.516,1.41,0.516
		c0.573,0,1.013-0.077,1.32-0.23c0.306-0.153,0.606-0.376,0.9-0.67l1.96,1.952c-0.28,0.278-0.56,0.52-0.84,0.725
		c-0.28,0.205-0.583,0.38-0.91,0.526c-0.327,0.146-0.69,0.255-1.09,0.328c-0.4,0.073-0.847,0.109-1.34,0.109
		c-0.6,0-1.202-0.07-1.807-0.21c-0.605-0.14-1.149-0.407-1.633-0.8c-0.484-0.393-0.881-0.95-1.192-1.67
		c-0.312-0.72-0.467-1.66-0.467-2.82c0-0.88,0.12-1.66,0.361-2.34c0.241-0.68,0.575-1.256,1.002-1.73
		c0.427-0.473,0.935-0.83,1.523-1.07c0.588-0.24,1.236-0.36,1.944-0.36c0.775,0,1.466,0.133,2.075,0.4
		c0.607,0.267,1.115,0.63,1.523,1.09s0.718,1,0.932,1.62c0.214,0.62,0.321,1.284,0.321,1.99v1.46H241.608z M244.829,32.343
		c0-0.135-0.014-0.273-0.041-0.415c-0.027-0.142-0.074-0.287-0.141-0.435c-0.107-0.229-0.275-0.428-0.503-0.597
		c-0.228-0.169-0.537-0.253-0.926-0.253s-0.698,0.084-0.926,0.253c-0.228,0.168-0.396,0.367-0.503,0.597
		c-0.067,0.148-0.114,0.293-0.141,0.435c-0.027,0.142-0.041,0.28-0.041,0.415H244.829z"/>
	<path fill="#FCEC4D" d="M255.828,31.463c-0.16-0.16-0.327-0.293-0.5-0.4c-0.173-0.107-0.4-0.16-0.68-0.16
		c-0.107,0-0.237,0.02-0.39,0.06c-0.154,0.04-0.3,0.113-0.44,0.22c-0.14,0.107-0.257,0.257-0.35,0.45
		c-0.094,0.193-0.14,0.443-0.14,0.75v6.44h-3.26v-10.76h3.18l0,0.88c0.24-0.24,0.583-0.467,1.03-0.68
		c0.446-0.213,0.95-0.32,1.51-0.32c0.533,0,0.993,0.073,1.38,0.22c0.387,0.147,0.767,0.407,1.14,0.78L255.828,31.463z"/>
	<path fill="#FCEC4D" d="M262.788,38.823c-0.597,0-1.104-0.097-1.521-0.29c-0.417-0.193-0.759-0.443-1.023-0.75
		c-0.265-0.307-0.461-0.646-0.587-1.02c-0.126-0.373-0.188-0.747-0.188-1.12v-11.06h3.26v10.839c0,0.441,0.22,0.661,0.66,0.661h1.14
		v2.74H262.788z"/>
	<path fill="#FCEC4D" d="M266.388,26.963v-2.5h3.26v2.5H266.388z M266.388,38.823v-10.34h3.26v10.34H266.388z"/>
	<path fill="#FCEC4D" d="M278.288,38.823l-2.24-3.94l-0.64,0.7v3.24h-3.26v-14.24h3.26v7.24l2.9-3.76h3.94l-3.96,4.46l4.06,6.3
		H278.288z"/>
	<path fill="#FCEC4D" d="M292.348,33.443c0,0.533-0.02,1-0.06,1.4s-0.103,0.76-0.189,1.08c-0.086,0.32-0.206,0.613-0.359,0.88
		c-0.153,0.267-0.342,0.52-0.569,0.76c-0.319,0.347-0.758,0.663-1.317,0.95c-0.559,0.287-1.271,0.43-2.135,0.43
		c-0.865,0-1.577-0.143-2.136-0.43c-0.559-0.287-0.998-0.603-1.317-0.95c-0.227-0.24-0.416-0.493-0.569-0.76
		c-0.153-0.267-0.272-0.56-0.359-0.88c-0.086-0.32-0.15-0.68-0.189-1.08c-0.04-0.4-0.06-0.867-0.06-1.4c0-0.52,0.02-0.983,0.06-1.39
		c0.04-0.407,0.103-0.77,0.189-1.09c0.086-0.32,0.206-0.613,0.359-0.88c0.153-0.266,0.343-0.52,0.569-0.76
		c0.159-0.173,0.349-0.34,0.569-0.5c0.219-0.16,0.469-0.307,0.748-0.44c0.28-0.133,0.596-0.24,0.948-0.32
		c0.352-0.08,0.748-0.12,1.188-0.12c0.438,0,0.834,0.04,1.187,0.12c0.353,0.08,0.668,0.187,0.948,0.32
		c0.279,0.133,0.529,0.28,0.748,0.44c0.22,0.16,0.409,0.327,0.569,0.5c0.227,0.24,0.416,0.494,0.569,0.76
		c0.153,0.267,0.273,0.56,0.359,0.88c0.086,0.32,0.149,0.683,0.189,1.09S292.348,32.923,292.348,33.443z M284.128,26.643v-2.9h2.68
		v2.9H284.128z M289.088,33.443c0-0.538-0.027-0.995-0.081-1.371c-0.054-0.376-0.188-0.672-0.403-0.887
		c-0.202-0.201-0.497-0.302-0.886-0.302c-0.39,0-0.686,0.101-0.887,0.302c-0.215,0.215-0.349,0.511-0.403,0.887
		c-0.054,0.376-0.081,0.833-0.081,1.371s0.027,0.994,0.081,1.371c0.054,0.376,0.188,0.672,0.403,0.887
		c0.201,0.202,0.497,0.303,0.887,0.303c0.389,0,0.685-0.101,0.886-0.303c0.215-0.215,0.349-0.511,0.403-0.887
		C289.061,34.438,289.088,33.981,289.088,33.443z M288.648,26.643v-2.9h2.68v2.9H288.648z"/>
	<path fill="#FCEC4D" d="M300.228,31.463c-0.16-0.16-0.327-0.293-0.5-0.4c-0.173-0.107-0.4-0.16-0.68-0.16
		c-0.107,0-0.237,0.02-0.39,0.06c-0.154,0.04-0.3,0.113-0.44,0.22c-0.14,0.107-0.257,0.257-0.35,0.45
		c-0.094,0.193-0.14,0.443-0.14,0.75v6.44h-3.26v-10.76h3.18l0,0.88c0.24-0.24,0.583-0.467,1.03-0.68
		c0.446-0.213,0.95-0.32,1.51-0.32c0.533,0,0.993,0.073,1.38,0.22c0.387,0.147,0.767,0.407,1.14,0.78L300.228,31.463z"/>
</g>
<g>
	<g>
		<path fill="#5EB130" d="M341.232,17.463c2.351,6.219,4.093,8.504,7.075,14.579c2.894,5.896-1.395,11.821-7.075,11.821
			c-5.681,0-9.969-5.925-7.075-11.821C337.139,25.967,338.778,23.682,341.232,17.463z"/>
	</g>
</g>
<g>
	<path fill="#5EB130" d="M364.76,38.094l-0.66-2.12h-4.38l-0.7,2.12h-3.66l5.18-14.24h2.7l5.18,14.24H364.76z M361.98,29.274
		l-1.28,3.8h2.48L361.98,29.274z"/>
	<path fill="#5EB130" d="M378.92,32.714c0,0.4-0.003,0.81-0.01,1.23c-0.007,0.42-0.04,0.83-0.1,1.23s-0.157,0.777-0.29,1.13
		c-0.133,0.354-0.333,0.664-0.6,0.93c-0.307,0.307-0.69,0.547-1.15,0.72c-0.46,0.173-0.95,0.26-1.47,0.26
		c-0.56,0-1.03-0.083-1.41-0.248c-0.38-0.166-0.737-0.414-1.07-0.745v0.873h-3.16v-14.24h3.26v4.254
		c0.307-0.305,0.65-0.53,1.03-0.675c0.38-0.146,0.837-0.219,1.37-0.219c0.52,0,1.007,0.087,1.46,0.26
		c0.453,0.173,0.833,0.414,1.14,0.72c0.267,0.267,0.467,0.577,0.6,0.93c0.133,0.354,0.23,0.73,0.29,1.13
		c0.06,0.4,0.093,0.81,0.1,1.23C378.917,31.904,378.92,32.314,378.92,32.714z M375.661,32.714c0-0.39-0.014-0.743-0.041-1.058
		c-0.027-0.316-0.087-0.584-0.181-0.806c-0.094-0.222-0.232-0.394-0.413-0.514c-0.182-0.121-0.427-0.182-0.735-0.182
		c-0.309,0-0.555,0.061-0.736,0.182c-0.181,0.121-0.319,0.292-0.413,0.514c-0.094,0.222-0.154,0.49-0.181,0.806
		c-0.027,0.315-0.041,0.668-0.041,1.058s0.014,0.743,0.041,1.058c0.027,0.316,0.087,0.584,0.181,0.807
		c0.094,0.222,0.231,0.393,0.413,0.514c0.181,0.121,0.427,0.182,0.736,0.182c0.309,0,0.554-0.061,0.735-0.182
		c0.181-0.121,0.319-0.292,0.413-0.514c0.094-0.222,0.154-0.491,0.181-0.807C375.647,33.457,375.661,33.104,375.661,32.714z"/>
	<path fill="#5EB130" d="M389.34,34.574c0,0.64-0.127,1.187-0.38,1.64c-0.253,0.453-0.594,0.83-1.02,1.13
		c-0.427,0.3-0.92,0.52-1.48,0.66c-0.56,0.14-1.154,0.21-1.78,0.21c-0.4,0-0.8-0.014-1.2-0.04c-0.4-0.027-0.797-0.09-1.19-0.19
		c-0.394-0.1-0.78-0.253-1.16-0.46s-0.757-0.497-1.13-0.87l2.12-2.12c0.227,0.227,0.463,0.4,0.71,0.52s0.49,0.21,0.73,0.27
		c0.24,0.06,0.46,0.093,0.66,0.1c0.2,0.007,0.373,0.01,0.52,0.01c0.12,0,0.26-0.01,0.42-0.03c0.16-0.02,0.313-0.057,0.46-0.11
		c0.147-0.053,0.27-0.124,0.37-0.21c0.1-0.087,0.15-0.203,0.15-0.35c0-0.146-0.05-0.29-0.15-0.43s-0.31-0.223-0.63-0.25l-1.66-0.16
		c-0.467-0.04-0.89-0.126-1.27-0.26s-0.707-0.327-0.98-0.58c-0.273-0.253-0.487-0.566-0.64-0.94c-0.153-0.373-0.23-0.82-0.23-1.34
		c0-0.6,0.124-1.12,0.37-1.56s0.57-0.81,0.97-1.11c0.4-0.3,0.856-0.523,1.37-0.67c0.513-0.146,1.036-0.22,1.57-0.22
		c0.88,0,1.673,0.087,2.38,0.26c0.707,0.173,1.327,0.527,1.86,1.06l-2.02,2.02c-0.267-0.267-0.606-0.44-1.02-0.52
		c-0.413-0.08-0.833-0.12-1.26-0.12c-0.4,0-0.677,0.074-0.83,0.22c-0.153,0.147-0.23,0.28-0.23,0.4c0,0.027,0.003,0.07,0.01,0.13
		c0.006,0.06,0.03,0.12,0.07,0.18s0.106,0.12,0.2,0.18c0.093,0.06,0.233,0.097,0.42,0.11l1.66,0.16
		c0.56,0.053,1.047,0.173,1.46,0.36c0.414,0.187,0.75,0.427,1.01,0.72c0.26,0.293,0.453,0.627,0.58,1
		C389.277,33.748,389.34,34.147,389.34,34.574z"/>
	<path fill="#5EB130" d="M391.121,26.234v-2.5h3.26v2.5H391.121z M391.121,38.094v-10.34h3.26v10.34H391.121z"/>
	<path fill="#5EB130" d="M402.8,38.094v-6.44c0-0.307-0.047-0.557-0.142-0.75c-0.094-0.193-0.211-0.343-0.353-0.45
		c-0.141-0.106-0.289-0.18-0.443-0.22s-0.285-0.06-0.393-0.06s-0.239,0.02-0.393,0.06s-0.302,0.113-0.443,0.22
		c-0.141,0.107-0.259,0.257-0.353,0.45c-0.094,0.193-0.141,0.443-0.141,0.75v6.44h-3.26v-10.76h3.193v0.88
		c0.333-0.333,0.725-0.583,1.177-0.75c0.453-0.167,0.892-0.25,1.317-0.25c0.505,0,0.961,0.08,1.367,0.24
		c0.405,0.16,0.755,0.387,1.047,0.68c0.466,0.467,0.762,0.954,0.888,1.46c0.126,0.507,0.189,1.047,0.189,1.62v6.88H402.8z"/>
	<path fill="#5EB130" d="M412.02,38.094c-0.597,0-1.104-0.096-1.521-0.289s-0.758-0.442-1.023-0.748
		c-0.265-0.306-0.46-0.645-0.586-1.018s-0.189-0.745-0.189-1.117v-4.628h-0.98v-2.54h0.98v-3.08h3.26v3.08h1.7v2.54h-1.7v4.4
		c0,0.44,0.22,0.66,0.66,0.66h1.04v2.74H412.02z"/>
	<path fill="#5EB130" d="M421.52,38.094v-6.537c0-0.293-0.047-0.531-0.141-0.711c-0.094-0.181-0.205-0.321-0.333-0.421
		c-0.128-0.1-0.266-0.17-0.414-0.21s-0.275-0.06-0.383-0.06s-0.235,0.02-0.383,0.06c-0.147,0.04-0.286,0.11-0.413,0.21
		c-0.128,0.101-0.239,0.241-0.333,0.421c-0.094,0.181-0.141,0.418-0.141,0.711v6.537h-3.26v-14.24h3.26v4.354
		c0.347-0.345,0.723-0.596,1.13-0.755s0.817-0.238,1.23-0.238c0.573,0,1.077,0.1,1.51,0.3c0.433,0.2,0.793,0.477,1.08,0.83
		c0.286,0.354,0.5,0.767,0.64,1.24c0.14,0.473,0.21,0.983,0.21,1.53v6.98H421.52z"/>
</g>
<path fill="#010202" d="M27.474,17.463c2.351,6.219,4.093,8.504,7.075,14.579c2.894,5.896-1.395,11.821-7.075,11.821
	c-5.681,0-9.969-5.925-7.075-11.821C23.38,25.967,25.019,23.682,27.474,17.463z"/>
<g>
	<path fill="#010202" d="M50.662,33.214c0,0.84-0.152,1.573-0.458,2.2c-0.305,0.627-0.706,1.147-1.203,1.56
		c-0.497,0.414-1.068,0.724-1.712,0.93c-0.645,0.207-1.3,0.31-1.967,0.31c-0.827,0-1.537-0.114-2.13-0.34s-1.177-0.633-1.75-1.22
		l2.3-2.28c0.227,0.227,0.45,0.404,0.67,0.53c0.22,0.127,0.523,0.19,0.91,0.19c0.546,0,0.993-0.157,1.34-0.47
		c0.347-0.313,0.52-0.81,0.52-1.49v-9.28h3.48V33.214z"/>
	<path fill="#010202" d="M58.381,38.094l0-0.88c-0.333,0.333-0.673,0.58-1.02,0.74c-0.347,0.16-0.807,0.24-1.38,0.24
		c-0.547,0-1.037-0.083-1.47-0.25s-0.803-0.403-1.11-0.71s-0.54-0.677-0.7-1.11c-0.16-0.433-0.24-0.903-0.24-1.41
		c0-0.4,0.07-0.79,0.21-1.17c0.14-0.38,0.36-0.713,0.66-1c0.3-0.287,0.68-0.517,1.14-0.69c0.46-0.173,1.01-0.26,1.65-0.26h2.18
		v-0.283c0-0.5-0.127-0.851-0.38-1.053c-0.253-0.202-0.667-0.304-1.24-0.304c-0.427,0-0.753,0.054-0.98,0.16
		c-0.227,0.107-0.473,0.293-0.74,0.56l-2.04-2.03c0.28-0.278,0.553-0.506,0.82-0.685s0.557-0.324,0.87-0.437
		c0.313-0.112,0.65-0.192,1.01-0.238c0.36-0.046,0.767-0.069,1.22-0.069c1.543,0,2.715,0.32,3.517,0.96
		c0.802,0.64,1.203,1.62,1.203,2.94v6.98H58.381z M53.662,25.914v-2.9h2.68v2.9H53.662z M58.301,33.774h-1.66
		c-0.32,0-0.574,0.08-0.76,0.24c-0.187,0.16-0.28,0.367-0.28,0.62c0,0.24,0.09,0.45,0.27,0.63c0.18,0.18,0.45,0.27,0.81,0.27
		c0.32,0,0.57-0.023,0.75-0.07c0.18-0.047,0.363-0.157,0.55-0.33c0.213-0.2,0.32-0.56,0.32-1.08V33.774z M58.162,25.914v-2.9h2.68
		v2.9H58.162z"/>
	<path fill="#010202" d="M72.621,37.314c0,0.64-0.118,1.227-0.352,1.76c-0.235,0.533-0.563,0.993-0.986,1.38
		c-0.423,0.387-0.936,0.69-1.538,0.91s-1.271,0.33-2.004,0.33c-0.84,0-1.587-0.096-2.24-0.288s-1.253-0.56-1.8-1.102l2.04-2.03
		c0.253,0.253,0.53,0.43,0.83,0.53c0.3,0.1,0.636,0.15,1.01,0.15c0.347,0,0.633-0.054,0.86-0.161
		c0.227-0.107,0.403-0.242,0.53-0.402c0.126-0.161,0.216-0.339,0.27-0.533c0.053-0.194,0.08-0.379,0.08-0.553V36.52
		c-0.306,0.305-0.642,0.53-1.007,0.676c-0.366,0.146-0.8,0.218-1.306,0.218c-1.036,0-1.874-0.32-2.511-0.96
		c-0.239-0.24-0.429-0.5-0.568-0.78c-0.14-0.28-0.239-0.586-0.299-0.92c-0.06-0.333-0.097-0.7-0.11-1.1s-0.02-0.847-0.02-1.34
		s0.007-0.94,0.02-1.34s0.05-0.767,0.11-1.1c0.06-0.333,0.159-0.64,0.299-0.92c0.139-0.28,0.329-0.54,0.568-0.78
		c0.638-0.64,1.481-0.96,2.532-0.96c0.558,0,1.013,0.083,1.365,0.249c0.352,0.166,0.694,0.414,1.026,0.745v-0.873h3.2V37.314z
		 M69.321,32.314c0-0.283-0.01-0.552-0.03-0.808c-0.02-0.256-0.073-0.484-0.16-0.687c-0.087-0.202-0.217-0.363-0.39-0.484
		c-0.173-0.121-0.407-0.182-0.7-0.182c-0.307,0-0.543,0.061-0.71,0.182c-0.167,0.122-0.293,0.283-0.38,0.484
		c-0.087,0.202-0.14,0.431-0.16,0.687c-0.02,0.255-0.03,0.525-0.03,0.808s0.01,0.552,0.03,0.807c0.02,0.256,0.073,0.484,0.16,0.687
		c0.086,0.202,0.213,0.363,0.38,0.484c0.167,0.122,0.403,0.182,0.71,0.182c0.293,0,0.527-0.06,0.7-0.182
		c0.173-0.121,0.303-0.283,0.39-0.484c0.086-0.202,0.14-0.431,0.16-0.687C69.311,32.866,69.321,32.597,69.321,32.314z"/>
	<path fill="#010202" d="M77.821,33.774c0,0.445,0.163,0.84,0.49,1.184c0.326,0.344,0.796,0.516,1.41,0.516
		c0.573,0,1.013-0.077,1.32-0.23c0.306-0.153,0.606-0.376,0.9-0.67l1.96,1.952c-0.28,0.278-0.56,0.52-0.84,0.725
		c-0.28,0.205-0.583,0.38-0.91,0.526c-0.327,0.146-0.69,0.255-1.09,0.328c-0.4,0.073-0.847,0.109-1.34,0.109
		c-0.6,0-1.202-0.07-1.807-0.21c-0.605-0.14-1.149-0.407-1.633-0.8c-0.484-0.393-0.881-0.95-1.192-1.67
		c-0.312-0.72-0.467-1.66-0.467-2.82c0-0.88,0.12-1.66,0.361-2.34c0.241-0.68,0.575-1.256,1.002-1.73
		c0.427-0.473,0.935-0.83,1.523-1.07c0.588-0.24,1.236-0.36,1.944-0.36c0.775,0,1.466,0.133,2.075,0.4
		c0.607,0.267,1.115,0.63,1.523,1.09s0.718,1,0.932,1.62c0.214,0.62,0.321,1.284,0.321,1.99v1.46H77.821z M81.041,31.614
		c0-0.135-0.014-0.273-0.041-0.415c-0.027-0.142-0.074-0.287-0.141-0.435c-0.107-0.229-0.275-0.428-0.503-0.597
		c-0.228-0.169-0.537-0.253-0.926-0.253s-0.698,0.084-0.926,0.253c-0.228,0.168-0.396,0.367-0.503,0.597
		c-0.067,0.148-0.114,0.293-0.141,0.435c-0.027,0.142-0.041,0.28-0.041,0.415H81.041z"/>
	<path fill="#010202" d="M92.041,30.734c-0.16-0.16-0.327-0.293-0.5-0.4c-0.173-0.107-0.4-0.16-0.68-0.16
		c-0.107,0-0.237,0.02-0.39,0.06c-0.154,0.04-0.3,0.113-0.44,0.22c-0.14,0.107-0.257,0.257-0.35,0.45
		c-0.094,0.193-0.14,0.443-0.14,0.75v6.44h-3.26v-10.76h3.18l0,0.88c0.24-0.24,0.583-0.467,1.03-0.68
		c0.446-0.213,0.95-0.32,1.51-0.32c0.533,0,0.993,0.073,1.38,0.22c0.387,0.147,0.767,0.407,1.14,0.78L92.041,30.734z"/>
	<path fill="#010202" d="M107.621,38.094v-6.456c0-0.308-0.047-0.558-0.141-0.752c-0.094-0.194-0.212-0.344-0.353-0.451
		c-0.142-0.107-0.289-0.181-0.444-0.221c-0.154-0.04-0.285-0.06-0.393-0.06s-0.239,0.02-0.393,0.06s-0.302,0.114-0.443,0.221
		s-0.259,0.257-0.353,0.451c-0.094,0.194-0.141,0.444-0.141,0.752v6.456h-3.26v-6.456c0-0.308-0.047-0.558-0.142-0.752
		c-0.094-0.194-0.211-0.344-0.353-0.451s-0.289-0.181-0.443-0.221s-0.285-0.06-0.393-0.06s-0.239,0.02-0.393,0.06
		s-0.302,0.114-0.443,0.221s-0.259,0.257-0.353,0.451c-0.094,0.194-0.141,0.444-0.141,0.752v6.456h-3.26v-10.76h3.18l0.02,0.873
		c0.333-0.331,0.726-0.579,1.178-0.745c0.453-0.166,0.892-0.249,1.318-0.249c0.532,0,1.015,0.09,1.447,0.27
		c0.432,0.18,0.822,0.47,1.168,0.87c0.465-0.413,0.931-0.707,1.397-0.88c0.465-0.173,1.011-0.26,1.637-0.26
		c0.505,0,0.988,0.08,1.447,0.24c0.459,0.16,0.835,0.387,1.128,0.68c0.466,0.467,0.778,0.954,0.938,1.46
		c0.16,0.507,0.24,1.047,0.24,1.62v6.88H107.621z"/>
	<path fill="#010202" d="M116,33.774c0,0.445,0.163,0.84,0.49,1.184c0.326,0.344,0.796,0.516,1.41,0.516
		c0.573,0,1.013-0.077,1.32-0.23c0.306-0.153,0.606-0.376,0.9-0.67l1.96,1.952c-0.28,0.278-0.56,0.52-0.84,0.725
		c-0.28,0.205-0.583,0.38-0.91,0.526c-0.327,0.146-0.69,0.255-1.09,0.328c-0.4,0.073-0.847,0.109-1.34,0.109
		c-0.6,0-1.202-0.07-1.807-0.21c-0.605-0.14-1.149-0.407-1.633-0.8c-0.484-0.393-0.881-0.95-1.192-1.67
		c-0.312-0.72-0.467-1.66-0.467-2.82c0-0.88,0.12-1.66,0.361-2.34c0.241-0.68,0.575-1.256,1.002-1.73
		c0.427-0.473,0.935-0.83,1.523-1.07c0.588-0.24,1.236-0.36,1.944-0.36c0.775,0,1.466,0.133,2.075,0.4
		c0.607,0.267,1.115,0.63,1.523,1.09s0.718,1,0.932,1.62c0.214,0.62,0.321,1.284,0.321,1.99v1.46H116z M119.221,31.614
		c0-0.135-0.014-0.273-0.041-0.415c-0.027-0.142-0.074-0.287-0.141-0.435c-0.107-0.229-0.275-0.428-0.503-0.597
		c-0.228-0.169-0.537-0.253-0.926-0.253s-0.698,0.084-0.926,0.253c-0.228,0.168-0.396,0.367-0.503,0.597
		c-0.067,0.148-0.114,0.293-0.141,0.435c-0.027,0.142-0.041,0.28-0.041,0.415H119.221z"/>
	<path fill="#010202" d="M124.46,26.234v-2.5h3.26v2.5H124.46z M124.46,38.094v-10.34h3.26v10.34H124.46z"/>
	<path fill="#010202" d="M138.52,34.574c0,0.64-0.127,1.187-0.38,1.64c-0.253,0.453-0.594,0.83-1.02,1.13
		c-0.427,0.3-0.92,0.52-1.48,0.66c-0.56,0.14-1.154,0.21-1.78,0.21c-0.4,0-0.8-0.014-1.2-0.04c-0.4-0.027-0.797-0.09-1.19-0.19
		c-0.394-0.1-0.78-0.253-1.16-0.46s-0.757-0.497-1.13-0.87l2.12-2.12c0.227,0.227,0.463,0.4,0.71,0.52s0.49,0.21,0.73,0.27
		c0.24,0.06,0.46,0.093,0.66,0.1c0.2,0.007,0.373,0.01,0.52,0.01c0.12,0,0.26-0.01,0.42-0.03c0.16-0.02,0.313-0.057,0.46-0.11
		c0.147-0.053,0.27-0.124,0.37-0.21c0.1-0.087,0.15-0.203,0.15-0.35c0-0.146-0.05-0.29-0.15-0.43s-0.31-0.223-0.63-0.25l-1.66-0.16
		c-0.467-0.04-0.89-0.126-1.27-0.26s-0.707-0.327-0.98-0.58c-0.273-0.253-0.487-0.566-0.64-0.94c-0.153-0.373-0.23-0.82-0.23-1.34
		c0-0.6,0.124-1.12,0.37-1.56s0.57-0.81,0.97-1.11c0.4-0.3,0.856-0.523,1.37-0.67c0.513-0.146,1.036-0.22,1.57-0.22
		c0.88,0,1.673,0.087,2.38,0.26c0.707,0.173,1.327,0.527,1.86,1.06l-2.02,2.02c-0.267-0.267-0.606-0.44-1.02-0.52
		c-0.413-0.08-0.833-0.12-1.26-0.12c-0.4,0-0.677,0.074-0.83,0.22c-0.153,0.147-0.23,0.28-0.23,0.4c0,0.027,0.003,0.07,0.01,0.13
		c0.006,0.06,0.03,0.12,0.07,0.18s0.106,0.12,0.2,0.18c0.093,0.06,0.233,0.097,0.42,0.11l1.66,0.16
		c0.56,0.053,1.047,0.173,1.46,0.36c0.414,0.187,0.75,0.427,1.01,0.72c0.26,0.293,0.453,0.627,0.58,1
		C138.457,33.748,138.52,34.147,138.52,34.574z"/>
	<path fill="#010202" d="M143.66,38.094c-0.597,0-1.104-0.096-1.521-0.289s-0.758-0.442-1.023-0.748
		c-0.265-0.306-0.46-0.645-0.586-1.018s-0.189-0.745-0.189-1.117v-4.628h-0.98v-2.54h0.98v-3.08h3.26v3.08h1.7v2.54h-1.7v4.4
		c0,0.44,0.22,0.66,0.66,0.66h1.04v2.74H143.66z"/>
	<path fill="#010202" d="M150.02,33.774c0,0.445,0.163,0.84,0.49,1.184c0.326,0.344,0.796,0.516,1.41,0.516
		c0.573,0,1.013-0.077,1.32-0.23c0.306-0.153,0.606-0.376,0.9-0.67l1.96,1.952c-0.28,0.278-0.56,0.52-0.84,0.725
		c-0.28,0.205-0.583,0.38-0.91,0.526c-0.327,0.146-0.69,0.255-1.09,0.328c-0.4,0.073-0.847,0.109-1.34,0.109
		c-0.6,0-1.202-0.07-1.807-0.21c-0.605-0.14-1.149-0.407-1.633-0.8c-0.484-0.393-0.881-0.95-1.192-1.67
		c-0.312-0.72-0.467-1.66-0.467-2.82c0-0.88,0.12-1.66,0.361-2.34c0.241-0.68,0.575-1.256,1.002-1.73
		c0.427-0.473,0.935-0.83,1.523-1.07c0.588-0.24,1.236-0.36,1.944-0.36c0.775,0,1.466,0.133,2.075,0.4
		c0.607,0.267,1.115,0.63,1.523,1.09s0.718,1,0.932,1.62c0.214,0.62,0.321,1.284,0.321,1.99v1.46H150.02z M153.24,31.614
		c0-0.135-0.014-0.273-0.041-0.415c-0.027-0.142-0.074-0.287-0.141-0.435c-0.107-0.229-0.275-0.428-0.503-0.597
		c-0.228-0.169-0.537-0.253-0.926-0.253s-0.698,0.084-0.926,0.253c-0.228,0.168-0.396,0.367-0.503,0.597
		c-0.067,0.148-0.114,0.293-0.141,0.435c-0.027,0.142-0.041,0.28-0.041,0.415H153.24z"/>
	<path fill="#010202" d="M164.24,30.734c-0.16-0.16-0.327-0.293-0.5-0.4c-0.173-0.107-0.4-0.16-0.68-0.16
		c-0.107,0-0.237,0.02-0.39,0.06c-0.154,0.04-0.3,0.113-0.44,0.22c-0.14,0.107-0.257,0.257-0.35,0.45
		c-0.094,0.193-0.14,0.443-0.14,0.75v6.44h-3.26v-10.76h3.18l0,0.88c0.24-0.24,0.583-0.467,1.03-0.68
		c0.446-0.213,0.95-0.32,1.51-0.32c0.533,0,0.993,0.073,1.38,0.22c0.387,0.147,0.767,0.407,1.14,0.78L164.24,30.734z"/>
</g>
<g>
	<path fill="#D32016" d="M462.864,17.463c2.351,6.218,4.093,8.503,7.075,14.579c2.894,5.896-1.395,11.822-7.075,11.822
		c-5.681,0-9.969-5.925-7.075-11.822C458.771,25.967,460.41,23.682,462.864,17.463z"/>
</g>
<g>
	<path fill="#D32016" d="M487.992,33.734c0,0.72-0.147,1.36-0.44,1.92c-0.293,0.56-0.69,1.03-1.19,1.41
		c-0.5,0.38-1.083,0.667-1.75,0.86c-0.667,0.193-1.374,0.29-2.12,0.29c-0.547,0-1.067-0.03-1.56-0.09
		c-0.493-0.06-0.967-0.16-1.42-0.3c-0.454-0.14-0.88-0.33-1.28-0.57c-0.4-0.24-0.78-0.547-1.14-0.92l2.24-2.24
		c0.373,0.374,0.854,0.633,1.44,0.78c0.587,0.147,1.167,0.22,1.74,0.22c1.36,0,2.04-0.427,2.04-1.28c0-0.36-0.093-0.64-0.28-0.84
		c-0.2-0.2-0.513-0.327-0.94-0.38l-1.72-0.24c-1.267-0.187-2.22-0.606-2.86-1.26c-0.653-0.667-0.98-1.62-0.98-2.86
		c0-0.653,0.12-1.253,0.36-1.8c0.24-0.546,0.583-1.02,1.03-1.42s0.99-0.713,1.63-0.94c0.64-0.227,1.367-0.34,2.18-0.34
		c1.026,0,1.93,0.13,2.71,0.39c0.78,0.26,1.477,0.697,2.09,1.31l-2.2,2.2c-0.227-0.227-0.467-0.396-0.72-0.51
		c-0.253-0.113-0.5-0.196-0.74-0.25c-0.24-0.053-0.467-0.08-0.68-0.08s-0.4,0-0.56,0c-0.307,0-0.567,0.04-0.78,0.12
		c-0.213,0.08-0.39,0.184-0.53,0.31c-0.14,0.127-0.243,0.267-0.31,0.42c-0.066,0.154-0.1,0.31-0.1,0.47c0,0.093,0.02,0.2,0.06,0.32
		c0.04,0.12,0.113,0.233,0.22,0.34c0.093,0.093,0.217,0.18,0.37,0.26c0.153,0.08,0.356,0.133,0.61,0.16l1.72,0.24
		c1.253,0.174,2.187,0.567,2.8,1.18c0.387,0.374,0.66,0.82,0.82,1.34C487.912,32.474,487.992,33.067,487.992,33.734z"/>
	<path fill="#D32016" d="M495.312,38.094l0-0.88c-0.333,0.333-0.673,0.58-1.02,0.74c-0.347,0.16-0.807,0.24-1.38,0.24
		c-0.547,0-1.037-0.083-1.47-0.25s-0.803-0.403-1.11-0.71s-0.54-0.677-0.7-1.11c-0.16-0.433-0.24-0.903-0.24-1.41
		c0-0.4,0.07-0.79,0.21-1.17c0.14-0.38,0.36-0.713,0.66-1c0.3-0.287,0.68-0.517,1.14-0.69c0.46-0.173,1.01-0.26,1.65-0.26h2.18
		v-0.283c0-0.5-0.127-0.851-0.38-1.053c-0.253-0.202-0.667-0.304-1.24-0.304c-0.427,0-0.753,0.054-0.98,0.16
		c-0.227,0.107-0.473,0.293-0.74,0.56l-2.04-2.03c0.28-0.278,0.553-0.506,0.82-0.685s0.557-0.324,0.87-0.437
		c0.313-0.112,0.65-0.192,1.01-0.238c0.36-0.046,0.767-0.069,1.22-0.069c1.543,0,2.715,0.32,3.517,0.96
		c0.802,0.64,1.203,1.62,1.203,2.94v6.98H495.312z M495.232,33.774h-1.66c-0.32,0-0.574,0.08-0.76,0.24
		c-0.187,0.16-0.28,0.367-0.28,0.62c0,0.24,0.09,0.45,0.27,0.63c0.18,0.18,0.45,0.27,0.81,0.27c0.32,0,0.57-0.023,0.75-0.07
		c0.18-0.047,0.363-0.157,0.55-0.33c0.213-0.2,0.32-0.56,0.32-1.08V33.774z"/>
	<path fill="#D32016" d="M506.732,38.094v-6.44c0-0.307-0.047-0.557-0.142-0.75c-0.094-0.193-0.211-0.343-0.353-0.45
		c-0.141-0.106-0.289-0.18-0.443-0.22s-0.285-0.06-0.393-0.06s-0.239,0.02-0.393,0.06s-0.302,0.113-0.443,0.22
		c-0.141,0.107-0.259,0.257-0.353,0.45c-0.094,0.193-0.141,0.443-0.141,0.75v6.44h-3.26v-10.76h3.193v0.88
		c0.333-0.333,0.725-0.583,1.177-0.75c0.453-0.167,0.892-0.25,1.317-0.25c0.505,0,0.961,0.08,1.367,0.24
		c0.405,0.16,0.755,0.387,1.047,0.68c0.466,0.467,0.762,0.954,0.888,1.46c0.126,0.507,0.189,1.047,0.189,1.62v6.88H506.732z"/>
	<path fill="#D32016" d="M521.132,37.314c0,0.64-0.118,1.227-0.352,1.76c-0.235,0.533-0.563,0.993-0.986,1.38
		c-0.423,0.387-0.936,0.69-1.538,0.91s-1.271,0.33-2.004,0.33c-0.84,0-1.587-0.096-2.24-0.288s-1.253-0.56-1.8-1.102l2.04-2.03
		c0.253,0.253,0.53,0.43,0.83,0.53c0.3,0.1,0.636,0.15,1.01,0.15c0.347,0,0.633-0.054,0.86-0.161
		c0.227-0.107,0.403-0.242,0.53-0.402c0.126-0.161,0.216-0.339,0.27-0.533c0.053-0.194,0.08-0.379,0.08-0.553V36.52
		c-0.306,0.305-0.642,0.53-1.007,0.676c-0.366,0.146-0.8,0.218-1.306,0.218c-1.036,0-1.874-0.32-2.511-0.96
		c-0.239-0.24-0.429-0.5-0.568-0.78c-0.14-0.28-0.239-0.586-0.299-0.92c-0.06-0.333-0.097-0.7-0.11-1.1s-0.02-0.847-0.02-1.34
		s0.007-0.94,0.02-1.34s0.05-0.767,0.11-1.1c0.06-0.333,0.159-0.64,0.299-0.92c0.139-0.28,0.329-0.54,0.568-0.78
		c0.638-0.64,1.481-0.96,2.532-0.96c0.558,0,1.013,0.083,1.365,0.249c0.352,0.166,0.694,0.414,1.026,0.745v-0.873h3.2V37.314z
		 M517.832,32.314c0-0.283-0.01-0.552-0.03-0.808c-0.02-0.256-0.073-0.484-0.16-0.687c-0.087-0.202-0.217-0.363-0.39-0.484
		c-0.173-0.121-0.407-0.182-0.7-0.182c-0.307,0-0.543,0.061-0.71,0.182c-0.167,0.122-0.293,0.283-0.38,0.484
		c-0.087,0.202-0.14,0.431-0.16,0.687c-0.02,0.255-0.03,0.525-0.03,0.808s0.01,0.552,0.03,0.807c0.02,0.256,0.073,0.484,0.16,0.687
		c0.086,0.202,0.213,0.363,0.38,0.484c0.167,0.122,0.403,0.182,0.71,0.182c0.293,0,0.527-0.06,0.7-0.182
		c0.173-0.121,0.303-0.283,0.39-0.484c0.086-0.202,0.14-0.431,0.16-0.687C517.822,32.866,517.832,32.597,517.832,32.314z"/>
	<path fill="#D32016" d="M529.372,30.734c-0.16-0.16-0.327-0.293-0.5-0.4c-0.173-0.107-0.4-0.16-0.68-0.16
		c-0.107,0-0.237,0.02-0.39,0.06c-0.154,0.04-0.3,0.113-0.44,0.22c-0.14,0.107-0.257,0.257-0.35,0.45
		c-0.094,0.193-0.14,0.443-0.14,0.75v6.44h-3.26v-10.76h3.18l0,0.88c0.24-0.24,0.583-0.467,1.03-0.68
		c0.446-0.213,0.95-0.32,1.51-0.32c0.533,0,0.993,0.073,1.38,0.22c0.387,0.147,0.767,0.407,1.14,0.78L529.372,30.734z"/>
	<path fill="#D32016" d="M533.112,26.234v-2.5h3.26v2.5H533.112z M533.112,38.094v-10.34h3.26v10.34H533.112z"/>
	<path fill="#D32016" d="M544.091,38.094l0-0.88c-0.333,0.333-0.673,0.58-1.02,0.74c-0.347,0.16-0.807,0.24-1.38,0.24
		c-0.547,0-1.037-0.083-1.47-0.25s-0.803-0.403-1.11-0.71s-0.54-0.677-0.7-1.11c-0.16-0.433-0.24-0.903-0.24-1.41
		c0-0.4,0.07-0.79,0.21-1.17c0.14-0.38,0.36-0.713,0.66-1c0.3-0.287,0.68-0.517,1.14-0.69c0.46-0.173,1.01-0.26,1.65-0.26h2.18
		v-0.283c0-0.5-0.127-0.851-0.38-1.053c-0.253-0.202-0.667-0.304-1.24-0.304c-0.427,0-0.753,0.054-0.98,0.16
		c-0.227,0.107-0.473,0.293-0.74,0.56l-2.04-2.03c0.28-0.278,0.553-0.506,0.82-0.685s0.557-0.324,0.87-0.437
		c0.313-0.112,0.65-0.192,1.01-0.238c0.36-0.046,0.767-0.069,1.22-0.069c1.543,0,2.715,0.32,3.517,0.96
		c0.802,0.64,1.203,1.62,1.203,2.94v6.98H544.091z M544.011,33.774h-1.66c-0.32,0-0.574,0.08-0.76,0.24
		c-0.187,0.16-0.28,0.367-0.28,0.62c0,0.24,0.09,0.45,0.27,0.63c0.18,0.18,0.45,0.27,0.81,0.27c0.32,0,0.57-0.023,0.75-0.07
		c0.18-0.047,0.363-0.157,0.55-0.33c0.213-0.2,0.32-0.56,0.32-1.08V33.774z"/>
</g>
<g>
	<g>
		<path fill="#C0398D" d="M583.918,17.463c2.35,6.219,4.094,8.504,7.074,14.579c2.895,5.896-1.395,11.821-7.074,11.821
			c-5.682,0-9.969-5.925-7.074-11.821C579.824,25.967,581.463,23.682,583.918,17.463z"/>
	</g>
</g>
<g>
	<path fill="#C0398D" d="M606.676,38.094l-2.527-5.3h-1.184v5.3h-3.48v-14.24h5.64c0.787,0,1.483,0.13,2.09,0.39
		c0.606,0.26,1.113,0.604,1.52,1.03s0.717,0.913,0.93,1.46c0.213,0.547,0.32,1.113,0.32,1.7c0,0.48-0.07,0.92-0.21,1.32
		c-0.141,0.4-0.321,0.753-0.542,1.06c-0.221,0.307-0.468,0.573-0.742,0.8c-0.274,0.227-0.552,0.407-0.833,0.54l3.087,5.94H606.676z
		 M606.505,28.454c0-0.373-0.135-0.707-0.405-1c-0.27-0.293-0.647-0.44-1.133-0.44h-2.002v2.88h2.002
		c0.486,0,0.863-0.146,1.133-0.44C606.371,29.161,606.505,28.828,606.505,28.454z"/>
	<path fill="#C0398D" d="M621.206,32.714c0,0.533-0.02,1-0.06,1.4s-0.103,0.76-0.189,1.08c-0.086,0.32-0.206,0.613-0.359,0.88
		c-0.153,0.267-0.342,0.52-0.569,0.76c-0.319,0.347-0.758,0.663-1.317,0.95c-0.559,0.287-1.271,0.43-2.135,0.43
		c-0.865,0-1.577-0.143-2.136-0.43c-0.559-0.287-0.998-0.603-1.317-0.95c-0.227-0.24-0.416-0.493-0.569-0.76
		c-0.153-0.267-0.272-0.56-0.359-0.88c-0.086-0.32-0.15-0.68-0.189-1.08c-0.04-0.4-0.06-0.867-0.06-1.4c0-0.52,0.02-0.983,0.06-1.39
		c0.04-0.407,0.103-0.77,0.189-1.09c0.086-0.32,0.206-0.613,0.359-0.88c0.153-0.266,0.343-0.52,0.569-0.76
		c0.159-0.173,0.349-0.34,0.569-0.5c0.219-0.16,0.469-0.307,0.748-0.44c0.28-0.133,0.596-0.24,0.948-0.32
		c0.352-0.08,0.748-0.12,1.188-0.12c0.438,0,0.834,0.04,1.187,0.12c0.353,0.08,0.668,0.187,0.948,0.32
		c0.279,0.133,0.529,0.28,0.748,0.44c0.22,0.16,0.409,0.327,0.569,0.5c0.227,0.24,0.416,0.494,0.569,0.76
		c0.153,0.267,0.273,0.56,0.359,0.88c0.086,0.32,0.149,0.683,0.189,1.09S621.206,32.194,621.206,32.714z M617.945,32.714
		c0-0.538-0.027-0.995-0.081-1.371c-0.054-0.376-0.188-0.672-0.403-0.887c-0.202-0.201-0.497-0.302-0.886-0.302
		c-0.39,0-0.686,0.101-0.887,0.302c-0.215,0.215-0.349,0.511-0.403,0.887c-0.054,0.376-0.081,0.833-0.081,1.371
		s0.027,0.994,0.081,1.371c0.054,0.376,0.188,0.672,0.403,0.887c0.201,0.202,0.497,0.303,0.887,0.303
		c0.389,0,0.685-0.101,0.886-0.303c0.215-0.215,0.349-0.511,0.403-0.887C617.918,33.708,617.945,33.252,617.945,32.714z"/>
	<path fill="#C0398D" d="M626.885,38.094c-0.597,0-1.104-0.096-1.521-0.289s-0.758-0.442-1.023-0.748
		c-0.265-0.306-0.46-0.645-0.586-1.018s-0.189-0.745-0.189-1.117v-4.628h-0.98v-2.54h0.98v-3.08h3.26v3.08h1.7v2.54h-1.7v4.4
		c0,0.44,0.22,0.66,0.66,0.66h1.04v2.74H626.885z"/>
	<path fill="#C0398D" d="M636.725,38.094l-2.24-3.94l-0.64,0.7v3.24h-3.26v-14.24h3.26v7.24l2.9-3.76h3.94l-3.96,4.46l4.06,6.3
		H636.725z"/>
	<path fill="#C0398D" d="M647.265,38.094l0-0.88c-0.333,0.333-0.673,0.58-1.02,0.74c-0.347,0.16-0.807,0.24-1.38,0.24
		c-0.547,0-1.037-0.083-1.47-0.25s-0.803-0.403-1.11-0.71s-0.54-0.677-0.7-1.11c-0.16-0.433-0.24-0.903-0.24-1.41
		c0-0.4,0.07-0.79,0.21-1.17c0.14-0.38,0.36-0.713,0.66-1c0.3-0.287,0.68-0.517,1.14-0.69c0.46-0.173,1.01-0.26,1.65-0.26h2.18
		v-0.283c0-0.5-0.127-0.851-0.38-1.053c-0.253-0.202-0.667-0.304-1.24-0.304c-0.427,0-0.753,0.054-0.98,0.16
		c-0.227,0.107-0.473,0.293-0.74,0.56l-2.04-2.03c0.28-0.278,0.553-0.506,0.82-0.685s0.557-0.324,0.87-0.437
		c0.313-0.112,0.65-0.192,1.01-0.238c0.36-0.046,0.767-0.069,1.22-0.069c1.543,0,2.715,0.32,3.517,0.96
		c0.802,0.64,1.203,1.62,1.203,2.94v6.98H647.265z M642.545,25.914v-2.9h2.68v2.9H642.545z M647.185,33.774h-1.66
		c-0.32,0-0.574,0.08-0.76,0.24c-0.187,0.16-0.28,0.367-0.28,0.62c0,0.24,0.09,0.45,0.27,0.63c0.18,0.18,0.45,0.27,0.81,0.27
		c0.32,0,0.57-0.023,0.75-0.07c0.18-0.047,0.363-0.157,0.55-0.33c0.213-0.2,0.32-0.56,0.32-1.08V33.774z M647.045,25.914v-2.9h2.68
		v2.9H647.045z"/>
	<path fill="#C0398D" d="M662.025,32.714c0,0.4-0.003,0.81-0.01,1.23c-0.007,0.42-0.04,0.83-0.1,1.23s-0.156,0.777-0.288,1.13
		c-0.132,0.354-0.331,0.664-0.596,0.93c-0.305,0.307-0.682,0.547-1.132,0.72c-0.45,0.173-0.934,0.26-1.45,0.26
		c-0.53,0-0.983-0.073-1.361-0.219s-0.719-0.371-1.023-0.675v4.254h-3.3v-14.24h3.2v0.873c0.332-0.331,0.686-0.579,1.063-0.745
		c0.378-0.166,0.845-0.249,1.401-0.249c0.517,0,1.003,0.087,1.46,0.26c0.457,0.173,0.837,0.414,1.142,0.72
		c0.265,0.267,0.464,0.577,0.596,0.93c0.132,0.354,0.229,0.73,0.288,1.13c0.06,0.4,0.092,0.81,0.1,1.23
		C662.021,31.904,662.025,32.314,662.025,32.714z M658.765,32.714c0-0.39-0.014-0.743-0.04-1.058
		c-0.026-0.316-0.086-0.584-0.179-0.806c-0.093-0.222-0.229-0.394-0.407-0.514c-0.179-0.121-0.42-0.182-0.724-0.182
		c-0.305,0-0.546,0.061-0.725,0.182c-0.179,0.121-0.314,0.292-0.407,0.514c-0.093,0.222-0.152,0.49-0.179,0.806
		c-0.026,0.315-0.04,0.668-0.04,1.058s0.013,0.743,0.04,1.058c0.026,0.316,0.086,0.584,0.179,0.807
		c0.093,0.222,0.228,0.393,0.407,0.514c0.179,0.121,0.42,0.182,0.725,0.182c0.304,0,0.545-0.061,0.724-0.182
		c0.179-0.121,0.314-0.292,0.407-0.514c0.093-0.222,0.152-0.491,0.179-0.807C658.751,33.457,658.765,33.104,658.765,32.714z"/>
	<path fill="#C0398D" d="M673.405,32.714c0,0.4-0.003,0.81-0.01,1.23c-0.007,0.42-0.04,0.83-0.1,1.23s-0.156,0.777-0.288,1.13
		c-0.132,0.354-0.331,0.664-0.596,0.93c-0.305,0.307-0.682,0.547-1.132,0.72c-0.45,0.173-0.934,0.26-1.45,0.26
		c-0.53,0-0.983-0.073-1.361-0.219s-0.719-0.371-1.023-0.675v4.254h-3.3v-14.24h3.2v0.873c0.332-0.331,0.686-0.579,1.063-0.745
		c0.378-0.166,0.845-0.249,1.401-0.249c0.517,0,1.003,0.087,1.46,0.26c0.457,0.173,0.837,0.414,1.142,0.72
		c0.265,0.267,0.464,0.577,0.596,0.93c0.132,0.354,0.229,0.73,0.288,1.13c0.06,0.4,0.092,0.81,0.1,1.23
		C673.401,31.904,673.405,32.314,673.405,32.714z M670.145,32.714c0-0.39-0.014-0.743-0.04-1.058
		c-0.026-0.316-0.086-0.584-0.179-0.806c-0.093-0.222-0.229-0.394-0.407-0.514c-0.179-0.121-0.42-0.182-0.724-0.182
		c-0.305,0-0.546,0.061-0.725,0.182c-0.179,0.121-0.314,0.292-0.407,0.514c-0.093,0.222-0.152,0.49-0.179,0.806
		c-0.026,0.315-0.04,0.668-0.04,1.058s0.013,0.743,0.04,1.058c0.026,0.316,0.086,0.584,0.179,0.807
		c0.093,0.222,0.228,0.393,0.407,0.514c0.179,0.121,0.42,0.182,0.725,0.182c0.304,0,0.545-0.061,0.724-0.182
		c0.179-0.121,0.314-0.292,0.407-0.514c0.093-0.222,0.152-0.491,0.179-0.807C670.131,33.457,670.145,33.104,670.145,32.714z"/>
	<path fill="#C0398D" d="M683.405,36.844c-0.44,0.437-0.95,0.775-1.53,1.013c-0.58,0.238-1.25,0.357-2.01,0.357
		c-0.467,0-0.979-0.067-1.538-0.2c-0.559-0.133-1.083-0.396-1.573-0.79c-0.49-0.393-0.897-0.95-1.222-1.67
		c-0.325-0.72-0.487-1.667-0.487-2.84s0.163-2.12,0.487-2.84c0.325-0.72,0.732-1.276,1.222-1.67c0.49-0.393,1.015-0.656,1.573-0.79
		c0.558-0.133,1.071-0.2,1.538-0.2c0.76,0,1.43,0.12,2.01,0.36c0.58,0.24,1.09,0.58,1.53,1.02l-2.22,2.22
		c-0.213-0.22-0.42-0.385-0.62-0.495c-0.2-0.11-0.433-0.165-0.7-0.165c-0.227,0-0.417,0.034-0.57,0.101
		c-0.153,0.067-0.303,0.174-0.45,0.322c-0.36,0.376-0.54,1.088-0.54,2.137c0,1.048,0.18,1.76,0.54,2.136
		c0.146,0.148,0.296,0.256,0.45,0.323c0.153,0.067,0.343,0.101,0.57,0.101c0.267,0,0.5-0.053,0.7-0.16
		c0.2-0.106,0.407-0.267,0.62-0.48L683.405,36.844z"/>
	<path fill="#C0398D" d="M690.825,38.094v-6.537c0-0.293-0.047-0.531-0.141-0.711c-0.094-0.181-0.205-0.321-0.333-0.421
		c-0.128-0.1-0.266-0.17-0.414-0.21s-0.275-0.06-0.383-0.06s-0.235,0.02-0.383,0.06c-0.147,0.04-0.286,0.11-0.413,0.21
		c-0.128,0.101-0.239,0.241-0.333,0.421c-0.094,0.181-0.141,0.418-0.141,0.711v6.537h-3.26v-14.24h3.26v4.354
		c0.347-0.345,0.723-0.596,1.13-0.755s0.817-0.238,1.23-0.238c0.573,0,1.077,0.1,1.51,0.3c0.433,0.2,0.793,0.477,1.08,0.83
		c0.286,0.354,0.5,0.767,0.64,1.24c0.14,0.473,0.21,0.983,0.21,1.53v6.98H690.825z"/>
	<path fill="#C0398D" d="M699.205,33.774c0,0.445,0.163,0.84,0.49,1.184c0.326,0.344,0.796,0.516,1.41,0.516
		c0.573,0,1.013-0.077,1.32-0.23c0.306-0.153,0.606-0.376,0.9-0.67l1.96,1.952c-0.28,0.278-0.56,0.52-0.84,0.725
		c-0.28,0.205-0.583,0.38-0.91,0.526c-0.327,0.146-0.69,0.255-1.09,0.328c-0.4,0.073-0.847,0.109-1.34,0.109
		c-0.6,0-1.202-0.07-1.807-0.21c-0.605-0.14-1.149-0.407-1.633-0.8c-0.484-0.393-0.881-0.95-1.192-1.67
		c-0.312-0.72-0.467-1.66-0.467-2.82c0-0.88,0.12-1.66,0.361-2.34c0.241-0.68,0.575-1.256,1.002-1.73
		c0.427-0.473,0.935-0.83,1.523-1.07c0.588-0.24,1.236-0.36,1.944-0.36c0.775,0,1.466,0.133,2.075,0.4
		c0.607,0.267,1.115,0.63,1.523,1.09s0.718,1,0.932,1.62c0.214,0.62,0.321,1.284,0.321,1.99v1.46H699.205z M702.425,31.614
		c0-0.135-0.014-0.273-0.041-0.415c-0.027-0.142-0.074-0.287-0.141-0.435c-0.107-0.229-0.275-0.428-0.503-0.597
		c-0.228-0.169-0.537-0.253-0.926-0.253s-0.698,0.084-0.926,0.253c-0.228,0.168-0.396,0.367-0.503,0.597
		c-0.067,0.148-0.114,0.293-0.141,0.435c-0.027,0.142-0.041,0.28-0.041,0.415H702.425z"/>
	<path fill="#C0398D" d="M713.584,38.094v-6.44c0-0.307-0.047-0.557-0.142-0.75c-0.094-0.193-0.211-0.343-0.353-0.45
		c-0.141-0.106-0.289-0.18-0.443-0.22s-0.285-0.06-0.393-0.06s-0.239,0.02-0.393,0.06s-0.302,0.113-0.443,0.22
		c-0.141,0.107-0.259,0.257-0.353,0.45c-0.094,0.193-0.141,0.443-0.141,0.75v6.44h-3.26v-10.76h3.193v0.88
		c0.333-0.333,0.725-0.583,1.177-0.75c0.453-0.167,0.892-0.25,1.317-0.25c0.505,0,0.961,0.08,1.367,0.24
		c0.405,0.16,0.755,0.387,1.047,0.68c0.466,0.467,0.762,0.954,0.888,1.46c0.126,0.507,0.189,1.047,0.189,1.62v6.88H713.584z"/>
	<path fill="#C0398D" d="M733.444,33.734c0,0.72-0.147,1.36-0.44,1.92c-0.293,0.56-0.69,1.03-1.19,1.41
		c-0.5,0.38-1.083,0.667-1.75,0.86c-0.667,0.193-1.374,0.29-2.12,0.29c-0.547,0-1.067-0.03-1.56-0.09
		c-0.493-0.06-0.967-0.16-1.42-0.3c-0.454-0.14-0.88-0.33-1.28-0.57c-0.4-0.24-0.78-0.547-1.14-0.92l2.24-2.24
		c0.373,0.374,0.854,0.633,1.44,0.78c0.587,0.147,1.167,0.22,1.74,0.22c1.36,0,2.04-0.427,2.04-1.28c0-0.36-0.093-0.64-0.28-0.84
		c-0.2-0.2-0.513-0.327-0.94-0.38l-1.72-0.24c-1.267-0.187-2.22-0.606-2.86-1.26c-0.653-0.667-0.98-1.62-0.98-2.86
		c0-0.653,0.12-1.253,0.36-1.8c0.24-0.546,0.583-1.02,1.03-1.42s0.99-0.713,1.63-0.94c0.64-0.227,1.367-0.34,2.18-0.34
		c1.026,0,1.93,0.13,2.71,0.39c0.78,0.26,1.477,0.697,2.09,1.31l-2.2,2.2c-0.227-0.227-0.467-0.396-0.72-0.51
		c-0.253-0.113-0.5-0.196-0.74-0.25c-0.24-0.053-0.467-0.08-0.68-0.08s-0.4,0-0.56,0c-0.307,0-0.567,0.04-0.78,0.12
		c-0.213,0.08-0.39,0.184-0.53,0.31c-0.14,0.127-0.243,0.267-0.31,0.42c-0.066,0.154-0.1,0.31-0.1,0.47c0,0.093,0.02,0.2,0.06,0.32
		c0.04,0.12,0.113,0.233,0.22,0.34c0.093,0.093,0.217,0.18,0.37,0.26c0.153,0.08,0.356,0.133,0.61,0.16l1.72,0.24
		c1.253,0.174,2.187,0.567,2.8,1.18c0.387,0.374,0.66,0.82,0.82,1.34C733.364,32.474,733.444,33.068,733.444,33.734z"/>
	<path fill="#C0398D" d="M738.264,33.774c0,0.445,0.163,0.84,0.49,1.184c0.326,0.344,0.796,0.516,1.41,0.516
		c0.573,0,1.013-0.077,1.32-0.23c0.306-0.153,0.606-0.376,0.9-0.67l1.96,1.952c-0.28,0.278-0.56,0.52-0.84,0.725
		c-0.28,0.205-0.583,0.38-0.91,0.526c-0.327,0.146-0.69,0.255-1.09,0.328c-0.4,0.073-0.847,0.109-1.34,0.109
		c-0.6,0-1.202-0.07-1.807-0.21c-0.605-0.14-1.149-0.407-1.633-0.8c-0.484-0.393-0.881-0.95-1.192-1.67
		c-0.312-0.72-0.467-1.66-0.467-2.82c0-0.88,0.12-1.66,0.361-2.34c0.241-0.68,0.575-1.256,1.002-1.73
		c0.427-0.473,0.935-0.83,1.523-1.07c0.588-0.24,1.236-0.36,1.944-0.36c0.775,0,1.466,0.133,2.075,0.4
		c0.607,0.267,1.115,0.63,1.523,1.09s0.718,1,0.932,1.62c0.214,0.62,0.321,1.284,0.321,1.99v1.46H738.264z M741.484,31.614
		c0-0.135-0.014-0.273-0.041-0.415c-0.027-0.142-0.074-0.287-0.141-0.435c-0.107-0.229-0.275-0.428-0.503-0.597
		c-0.228-0.169-0.537-0.253-0.926-0.253s-0.698,0.084-0.926,0.253c-0.228,0.168-0.396,0.367-0.503,0.597
		c-0.067,0.148-0.114,0.293-0.141,0.435c-0.027,0.142-0.041,0.28-0.041,0.415H741.484z"/>
	<path fill="#C0398D" d="M752.863,38.094l-2.24-3.94l-0.64,0.7v3.24h-3.26v-14.24h3.26v7.24l2.9-3.76h3.94l-3.96,4.46l4.06,6.3
		H752.863z"/>
	<path fill="#C0398D" d="M761.743,38.094c-0.597,0-1.104-0.096-1.521-0.289s-0.758-0.442-1.023-0.748
		c-0.265-0.306-0.46-0.645-0.586-1.018s-0.189-0.745-0.189-1.117v-4.628h-0.98v-2.54h0.98v-3.08h3.26v3.08h1.7v2.54h-1.7v4.4
		c0,0.44,0.22,0.66,0.66,0.66h1.04v2.74H761.743z"/>
</g>
</svg>
