<?xml version="1.0" encoding="utf-8"?>
<!-- Generator: Adobe Illustrator 16.0.0, SVG Export Plug-In . SVG Version: 6.00 Build 0)  -->
<!DOCTYPE svg PUBLIC "-//W3C//DTD SVG 1.1//EN" "http://www.w3.org/Graphics/SVG/1.1/DTD/svg11.dtd">
<svg version="1.1" id="Layer_1" xmlns="http://www.w3.org/2000/svg" xmlns:xlink="http://www.w3.org/1999/xlink" x="0px" y="0px"
	 width="813px" height="100px" viewBox="-600.5 0 813 100" enable-background="new -600.5 0 813 100" xml:space="preserve">
<g>
	<path d="M-264.847,54.253l-6.56-11.68l-2.4,2.76v8.92h-6.92v-28.48h6.92v10.08l8.24-10.08h8.56l-9.72,11.52l10.04,16.96H-264.847z"
		/>
	<path d="M-233.487,40.013c0,1.067-0.007,2.114-0.02,3.14c-0.014,1.027-0.107,2.02-0.279,2.98c-0.173,0.96-0.459,1.874-0.859,2.74
		c-0.399,0.867-0.972,1.674-1.717,2.42c-1.038,1.04-2.183,1.834-3.434,2.38c-1.251,0.547-2.755,0.82-4.511,0.82
		c-1.757,0-3.26-0.273-4.512-0.82c-1.251-0.546-2.396-1.34-3.434-2.38c-0.745-0.746-1.317-1.553-1.717-2.42
		c-0.399-0.866-0.686-1.78-0.858-2.74c-0.173-0.96-0.266-1.953-0.279-2.98c-0.014-1.026-0.02-2.073-0.02-3.14
		c0-1.066,0.006-2.113,0.02-3.14c0.013-1.026,0.106-2.02,0.279-2.98c0.172-0.96,0.459-1.873,0.858-2.74
		c0.399-0.866,0.972-1.673,1.717-2.42c1.038-1.04,2.183-1.833,3.434-2.38c1.251-0.546,2.755-0.82,4.512-0.82
		c1.756,0,3.26,0.274,4.511,0.82c1.251,0.547,2.396,1.34,3.434,2.38c0.745,0.747,1.317,1.554,1.717,2.42
		c0.399,0.867,0.686,1.78,0.859,2.74c0.172,0.96,0.266,1.954,0.279,2.98C-233.494,37.9-233.487,38.947-233.487,40.013z
		 M-240.447,40.013c0-1.306-0.027-2.366-0.081-3.18c-0.054-0.813-0.121-1.466-0.201-1.96c-0.081-0.493-0.188-0.873-0.322-1.14
		c-0.135-0.266-0.282-0.506-0.443-0.72c-0.268-0.346-0.643-0.64-1.125-0.88c-0.482-0.24-1.045-0.36-1.689-0.36
		s-1.206,0.12-1.688,0.36c-0.482,0.24-0.858,0.534-1.125,0.88c-0.162,0.214-0.309,0.454-0.443,0.72
		c-0.134,0.267-0.242,0.647-0.322,1.14c-0.081,0.494-0.147,1.147-0.201,1.96c-0.054,0.813-0.08,1.874-0.08,3.18
		c0,1.307,0.026,2.36,0.08,3.16c0.054,0.8,0.121,1.447,0.201,1.94c0.08,0.494,0.188,0.874,0.322,1.14
		c0.134,0.267,0.281,0.507,0.443,0.72c0.267,0.347,0.643,0.646,1.125,0.9s1.045,0.38,1.688,0.38s1.207-0.126,1.689-0.38
		s0.857-0.553,1.125-0.9c0.161-0.213,0.308-0.453,0.443-0.72c0.133-0.266,0.241-0.646,0.322-1.14c0.08-0.493,0.147-1.14,0.201-1.94
		C-240.474,42.373-240.447,41.32-240.447,40.013z"/>
	<path d="M-213.087,54.253l-1.32-4.24h-8.76l-1.4,4.24h-7.32l10.36-28.48h5.4l10.36,28.48H-213.087z M-218.647,36.613l-2.56,7.6
		h4.96L-218.647,36.613z"/>
	<path d="M-202.887,54.253v-28.48h6.96v22.24h11.96v6.24H-202.887z"/>
	<path d="M-179.847,54.253v-28.48h6.96v28.48H-179.847z"/>
	<path d="M-154.808,32.013v22.24h-6.96v-22.24h-7v-6.24h20.96v6.24H-154.808z"/>
	<path d="M-143.689,54.253v-28.48h6.96v28.48H-143.689z"/>
	<path d="M-110.209,40.013c0,1.067-0.007,2.114-0.02,3.14c-0.014,1.027-0.107,2.02-0.279,2.98c-0.173,0.96-0.459,1.874-0.859,2.74
		c-0.399,0.867-0.972,1.674-1.717,2.42c-1.038,1.04-2.183,1.834-3.434,2.38c-1.251,0.547-2.755,0.82-4.511,0.82
		c-1.757,0-3.26-0.273-4.512-0.82c-1.251-0.546-2.396-1.34-3.434-2.38c-0.745-0.746-1.317-1.553-1.717-2.42
		c-0.399-0.866-0.686-1.78-0.858-2.74c-0.173-0.96-0.266-1.953-0.279-2.98c-0.014-1.026-0.02-2.073-0.02-3.14
		c0-1.066,0.006-2.113,0.02-3.14c0.013-1.026,0.106-2.02,0.279-2.98c0.172-0.96,0.459-1.873,0.858-2.74
		c0.399-0.866,0.972-1.673,1.717-2.42c1.038-1.04,2.183-1.833,3.434-2.38c1.251-0.546,2.755-0.82,4.512-0.82
		c1.756,0,3.26,0.274,4.511,0.82c1.251,0.547,2.396,1.34,3.434,2.38c0.745,0.747,1.317,1.554,1.717,2.42
		c0.399,0.867,0.686,1.78,0.859,2.74c0.172,0.96,0.266,1.954,0.279,2.98C-110.216,37.9-110.209,38.947-110.209,40.013z
		 M-117.169,40.013c0-1.306-0.027-2.366-0.081-3.18c-0.054-0.813-0.121-1.466-0.201-1.96c-0.081-0.493-0.188-0.873-0.322-1.14
		c-0.135-0.266-0.282-0.506-0.443-0.72c-0.268-0.346-0.643-0.64-1.125-0.88c-0.482-0.24-1.045-0.36-1.689-0.36
		s-1.206,0.12-1.688,0.36c-0.482,0.24-0.858,0.534-1.125,0.88c-0.162,0.214-0.309,0.454-0.443,0.72
		c-0.134,0.267-0.242,0.647-0.322,1.14c-0.081,0.494-0.147,1.147-0.201,1.96c-0.054,0.813-0.08,1.874-0.08,3.18
		c0,1.307,0.026,2.36,0.08,3.16c0.054,0.8,0.121,1.447,0.201,1.94c0.08,0.494,0.188,0.874,0.322,1.14
		c0.134,0.267,0.281,0.507,0.443,0.72c0.267,0.347,0.643,0.646,1.125,0.9s1.045,0.38,1.688,0.38s1.207-0.126,1.689-0.38
		s0.857-0.553,1.125-0.9c0.161-0.213,0.308-0.453,0.443-0.72c0.133-0.266,0.241-0.646,0.322-1.14c0.08-0.493,0.147-1.14,0.201-1.94
		C-117.196,42.373-117.169,41.32-117.169,40.013z"/>
	<path d="M-89.226,54.253l-9.144-14.32v14.32h-6.96v-28.48h6.136l9.144,14.32v-14.32h6.96v28.48H-89.226z"/>
	<path d="M-58.209,45.533c0,1.44-0.294,2.72-0.88,3.84c-0.587,1.12-1.38,2.061-2.38,2.82s-2.167,1.334-3.5,1.72
		c-1.334,0.386-2.747,0.58-4.24,0.58c-1.094,0-2.134-0.06-3.12-0.181c-0.987-0.119-1.934-0.319-2.84-0.6
		c-0.907-0.279-1.76-0.66-2.56-1.141c-0.8-0.479-1.56-1.092-2.28-1.84l4.48-4.479c0.746,0.747,1.706,1.267,2.88,1.56
		c1.173,0.293,2.333,0.44,3.48,0.44c2.72,0,4.08-0.853,4.08-2.56c0-0.72-0.187-1.28-0.56-1.68c-0.4-0.4-1.027-0.653-1.88-0.76
		l-3.44-0.48c-2.534-0.373-4.44-1.213-5.72-2.52c-1.307-1.333-1.96-3.24-1.96-5.72c0-1.306,0.24-2.506,0.72-3.6
		c0.48-1.093,1.167-2.04,2.06-2.84c0.893-0.8,1.98-1.426,3.26-1.88c1.28-0.453,2.733-0.68,4.36-0.68c2.053,0,3.86,0.26,5.42,0.78
		s2.953,1.394,4.18,2.62l-4.4,4.4c-0.454-0.453-0.934-0.793-1.44-1.02c-0.507-0.226-1-0.393-1.48-0.5
		c-0.48-0.106-0.934-0.16-1.36-0.16c-0.427,0-0.8,0-1.12,0c-0.613,0-1.133,0.08-1.56,0.24c-0.427,0.16-0.78,0.367-1.06,0.62
		c-0.28,0.254-0.487,0.534-0.62,0.84c-0.134,0.307-0.2,0.62-0.2,0.94c0,0.187,0.04,0.4,0.12,0.64c0.08,0.24,0.226,0.467,0.44,0.68
		c0.187,0.187,0.433,0.36,0.74,0.52c0.306,0.16,0.713,0.267,1.22,0.32l3.44,0.48c2.506,0.347,4.374,1.134,5.6,2.36
		c0.773,0.747,1.32,1.64,1.64,2.68C-58.37,43.013-58.209,44.2-58.209,45.533z"/>
	<path d="M-54.53,45.533v-6.16h13.12v6.16H-54.53z"/>
	<path d="M-15.93,45.213c-0.267,1.574-0.727,2.94-1.38,4.1c-0.654,1.16-1.454,2.126-2.4,2.9c-0.947,0.773-2.014,1.347-3.2,1.721
		c-1.187,0.373-2.46,0.56-3.82,0.56c-1.68,0-3.158-0.273-4.433-0.82c-1.275-0.546-2.43-1.34-3.463-2.38
		c-0.743-0.746-1.313-1.553-1.71-2.42c-0.397-0.866-0.683-1.78-0.855-2.74c-0.173-0.96-0.265-1.953-0.278-2.98
		c-0.014-1.026-0.02-2.073-0.02-3.14c0-1.066,0.006-2.113,0.02-3.14c0.013-1.026,0.105-2.02,0.278-2.98
		c0.172-0.96,0.458-1.873,0.855-2.74c0.397-0.866,0.968-1.673,1.71-2.42c1.034-1.04,2.188-1.833,3.463-2.38
		c1.275-0.546,2.753-0.82,4.433-0.82c1.36,0,2.633,0.187,3.82,0.56c1.186,0.374,2.253,0.947,3.2,1.72
		c0.946,0.774,1.746,1.74,2.4,2.9c0.653,1.16,1.113,2.527,1.38,4.1h-7.12c-0.214-0.8-0.587-1.506-1.12-2.12
		c-0.534-0.613-1.374-0.92-2.52-0.92c-0.64,0-1.193,0.114-1.66,0.34c-0.467,0.227-0.834,0.514-1.1,0.86
		c-0.16,0.213-0.307,0.454-0.44,0.72c-0.134,0.267-0.247,0.654-0.34,1.16c-0.094,0.507-0.167,1.167-0.22,1.98
		c-0.054,0.813-0.08,1.874-0.08,3.18c0,1.307,0.026,2.367,0.08,3.18c0.053,0.814,0.126,1.474,0.22,1.98
		c0.093,0.507,0.206,0.894,0.34,1.16c0.133,0.267,0.28,0.507,0.44,0.72c0.266,0.347,0.633,0.634,1.1,0.86
		c0.466,0.227,1.02,0.34,1.66,0.34c1.146,0,1.986-0.306,2.52-0.92c0.533-0.613,0.906-1.32,1.12-2.12H-15.93z"/>
	<path d="M8.511,40.013c0,1.067-0.007,2.114-0.02,3.14c-0.014,1.027-0.107,2.02-0.279,2.98c-0.173,0.96-0.459,1.874-0.859,2.74
		c-0.399,0.867-0.972,1.674-1.717,2.42c-1.038,1.04-2.183,1.834-3.434,2.38c-1.251,0.547-2.755,0.82-4.511,0.82
		c-1.757,0-3.26-0.273-4.512-0.82c-1.251-0.546-2.396-1.34-3.434-2.38c-0.745-0.746-1.317-1.553-1.717-2.42
		c-0.399-0.866-0.686-1.78-0.858-2.74c-0.173-0.96-0.266-1.953-0.279-2.98c-0.014-1.026-0.02-2.073-0.02-3.14
		c0-1.066,0.006-2.113,0.02-3.14c0.013-1.026,0.106-2.02,0.279-2.98c0.172-0.96,0.459-1.873,0.858-2.74
		c0.399-0.866,0.972-1.673,1.717-2.42c1.038-1.04,2.183-1.833,3.434-2.38c1.251-0.546,2.755-0.82,4.512-0.82
		c1.756,0,3.26,0.274,4.511,0.82c1.251,0.547,2.396,1.34,3.434,2.38c0.745,0.747,1.317,1.554,1.717,2.42
		c0.399,0.867,0.686,1.78,0.859,2.74c0.172,0.96,0.266,1.954,0.279,2.98C8.504,37.9,8.511,38.947,8.511,40.013z M1.551,40.013
		c0-1.306-0.027-2.366-0.081-3.18c-0.054-0.813-0.121-1.466-0.201-1.96C1.189,34.38,1.081,34,0.948,33.733
		c-0.135-0.266-0.282-0.506-0.443-0.72c-0.268-0.346-0.643-0.64-1.125-0.88c-0.482-0.24-1.045-0.36-1.689-0.36
		s-1.206,0.12-1.688,0.36c-0.482,0.24-0.858,0.534-1.125,0.88c-0.162,0.214-0.309,0.454-0.443,0.72
		C-5.701,34-5.808,34.38-5.888,34.873c-0.081,0.494-0.147,1.147-0.201,1.96c-0.054,0.813-0.08,1.874-0.08,3.18
		c0,1.307,0.026,2.36,0.08,3.16c0.054,0.8,0.121,1.447,0.201,1.94c0.08,0.494,0.188,0.874,0.322,1.14
		c0.134,0.267,0.281,0.507,0.443,0.72c0.267,0.347,0.643,0.646,1.125,0.9s1.045,0.38,1.688,0.38s1.207-0.126,1.689-0.38
		s0.857-0.553,1.125-0.9c0.161-0.213,0.308-0.453,0.443-0.72c0.133-0.266,0.241-0.646,0.322-1.14c0.08-0.493,0.147-1.14,0.201-1.94
		C1.524,42.373,1.551,41.32,1.551,40.013z"/>
	<path d="M34.03,45.213c-0.267,1.574-0.727,2.94-1.38,4.1c-0.654,1.16-1.454,2.126-2.4,2.9c-0.947,0.773-2.014,1.347-3.2,1.721
		c-1.187,0.373-2.46,0.56-3.82,0.56c-1.68,0-3.158-0.273-4.433-0.82c-1.275-0.546-2.43-1.34-3.463-2.38
		c-0.743-0.746-1.313-1.553-1.71-2.42c-0.397-0.866-0.683-1.78-0.855-2.74c-0.173-0.96-0.265-1.953-0.278-2.98
		c-0.014-1.026-0.02-2.073-0.02-3.14c0-1.066,0.006-2.113,0.02-3.14c0.013-1.026,0.105-2.02,0.278-2.98
		c0.172-0.96,0.458-1.873,0.855-2.74c0.397-0.866,0.968-1.673,1.71-2.42c1.034-1.04,2.188-1.833,3.463-2.38
		c1.275-0.546,2.753-0.82,4.433-0.82c1.36,0,2.633,0.187,3.82,0.56c1.186,0.374,2.253,0.947,3.2,1.72
		c0.946,0.774,1.746,1.74,2.4,2.9c0.653,1.16,1.113,2.527,1.38,4.1h-7.12c-0.214-0.8-0.587-1.506-1.12-2.12
		c-0.534-0.613-1.374-0.92-2.52-0.92c-0.64,0-1.193,0.114-1.66,0.34c-0.467,0.227-0.834,0.514-1.1,0.86
		c-0.16,0.213-0.307,0.454-0.44,0.72c-0.134,0.267-0.247,0.654-0.34,1.16c-0.094,0.507-0.167,1.167-0.22,1.98
		c-0.054,0.813-0.08,1.874-0.08,3.18c0,1.307,0.026,2.367,0.08,3.18c0.053,0.814,0.126,1.474,0.22,1.98
		c0.093,0.507,0.206,0.894,0.34,1.16c0.133,0.267,0.28,0.507,0.44,0.72c0.266,0.347,0.633,0.634,1.1,0.86
		c0.466,0.227,1.02,0.34,1.66,0.34c1.146,0,1.986-0.306,2.52-0.92c0.533-0.613,0.906-1.32,1.12-2.12H34.03z"/>
	<path d="M53.631,54.253l-6.56-11.68l-2.4,2.76v8.92h-6.92v-28.48h6.92v10.08l8.24-10.08h8.561l-9.721,11.52l10.041,16.96H53.631z"
		/>
	<path d="M76.949,32.013v22.24H69.99v-22.24h-7v-6.24h20.959v6.24H76.949z"/>
	<path d="M101.59,54.253l-1.32-4.24h-8.76l-1.4,4.24h-7.32l10.36-28.48h5.399l10.361,28.48H101.59z M96.029,36.613l-2.56,7.6h4.96
		L96.029,36.613z"/>
	<path d="M111.789,54.253v-28.48h6.961v28.48H111.789z"/>
	<path d="M124.549,54.253v-28.48h6.959v22.24h11.961v6.24H124.549z"/>
	<path d="M166.709,45.533c0,1.44-0.295,2.72-0.881,3.84s-1.379,2.061-2.379,2.82s-2.168,1.334-3.5,1.72
		c-1.334,0.386-2.748,0.58-4.24,0.58c-1.094,0-2.135-0.06-3.121-0.181c-0.986-0.119-1.934-0.319-2.84-0.6
		c-0.906-0.279-1.76-0.66-2.56-1.141c-0.8-0.479-1.56-1.092-2.28-1.84l4.48-4.479c0.746,0.747,1.706,1.267,2.88,1.56
		c1.173,0.293,2.333,0.44,3.479,0.44c2.721,0,4.08-0.853,4.08-2.56c0-0.72-0.187-1.28-0.56-1.68c-0.399-0.4-1.026-0.653-1.88-0.76
		l-3.439-0.48c-2.535-0.373-4.441-1.213-5.721-2.52c-1.307-1.333-1.96-3.24-1.96-5.72c0-1.306,0.239-2.506,0.72-3.6
		c0.48-1.093,1.166-2.04,2.061-2.84c0.893-0.8,1.979-1.426,3.26-1.88c1.279-0.453,2.732-0.68,4.359-0.68
		c2.054,0,3.86,0.26,5.42,0.78c1.561,0.52,2.953,1.394,4.181,2.62l-4.399,4.4c-0.455-0.453-0.935-0.793-1.44-1.02
		c-0.507-0.226-1-0.393-1.479-0.5c-0.48-0.106-0.935-0.16-1.361-0.16c-0.426,0-0.799,0-1.119,0c-0.613,0-1.134,0.08-1.561,0.24
		c-0.427,0.16-0.779,0.367-1.06,0.62c-0.28,0.254-0.487,0.534-0.62,0.84c-0.134,0.307-0.2,0.62-0.2,0.94c0,0.187,0.04,0.4,0.12,0.64
		c0.08,0.24,0.227,0.467,0.439,0.68c0.188,0.187,0.434,0.36,0.74,0.52c0.307,0.16,0.713,0.267,1.221,0.32l3.439,0.48
		c2.506,0.347,4.373,1.134,5.6,2.36c0.773,0.747,1.32,1.64,1.641,2.68C166.549,43.013,166.709,44.2,166.709,45.533z"/>
</g>
<g>
	<path d="M-278.85,65.273h0.81v10.68h-0.81V65.273z"/>
	<path d="M-269.82,73.898c0,0.66-0.257,1.183-0.772,1.567s-1.222,0.577-2.123,0.577c-0.63,0-1.183-0.085-1.657-0.255
		c-0.475-0.17-0.898-0.43-1.268-0.78l0.525-0.524c0.56,0.59,1.35,0.885,2.37,0.885c1.45,0,2.175-0.49,2.175-1.47
		c0-0.38-0.11-0.665-0.33-0.855c-0.22-0.189-0.57-0.31-1.05-0.359l-1.2-0.105c-1.45-0.12-2.175-0.75-2.175-1.89
		c0-0.63,0.235-1.13,0.705-1.5c0.47-0.37,1.1-0.556,1.89-0.556c0.51,0,0.98,0.067,1.41,0.203c0.43,0.135,0.805,0.322,1.125,0.562
		l-0.51,0.51c-0.56-0.41-1.235-0.615-2.025-0.615c-0.6,0-1.058,0.12-1.373,0.36s-0.473,0.585-0.473,1.035
		c0,0.38,0.118,0.665,0.353,0.854c0.235,0.19,0.607,0.311,1.118,0.36l1.17,0.104c0.3,0.03,0.58,0.08,0.84,0.15
		c0.26,0.07,0.482,0.175,0.667,0.314c0.185,0.141,0.333,0.325,0.442,0.556C-269.875,73.258-269.82,73.548-269.82,73.898z"/>
	<path d="M-265.755,75.953c-0.57,0-1.002-0.178-1.297-0.532c-0.295-0.355-0.443-0.808-0.443-1.357v-4.771h-0.99v-0.57h0.99v-2.31
		h0.765v2.31h1.635v0.57h-1.635v4.785c0,0.38,0.09,0.675,0.27,0.885c0.18,0.21,0.46,0.315,0.84,0.315h0.525v0.675H-265.755z"/>
	<path d="M-254.551,75.023c-0.32,0.42-0.652,0.695-0.998,0.824c-0.345,0.13-0.728,0.195-1.147,0.195
		c-0.38,0-0.723-0.058-1.027-0.172c-0.305-0.115-0.553-0.268-0.743-0.458c-0.37-0.37-0.617-0.832-0.742-1.388
		c-0.125-0.555-0.188-1.117-0.188-1.688c0-0.569,0.062-1.132,0.188-1.688c0.125-0.555,0.372-1.018,0.742-1.388
		c0.19-0.189,0.438-0.342,0.743-0.457c0.305-0.115,0.647-0.173,1.027-0.173c0.42,0,0.803,0.065,1.147,0.195
		c0.345,0.13,0.678,0.405,0.998,0.825v-4.38h0.765v10.68h-0.765V75.023z M-254.551,72.338c0-0.369-0.022-0.737-0.067-1.103
		c-0.045-0.364-0.14-0.689-0.285-0.975s-0.353-0.515-0.623-0.69c-0.27-0.175-0.625-0.262-1.065-0.262s-0.795,0.087-1.065,0.262
		c-0.27,0.176-0.478,0.405-0.623,0.69s-0.24,0.61-0.285,0.975c-0.045,0.365-0.068,0.733-0.068,1.103c0,0.381,0.022,0.75,0.068,1.11
		c0.045,0.36,0.14,0.683,0.285,0.968c0.145,0.284,0.353,0.515,0.623,0.689s0.625,0.263,1.065,0.263s0.795-0.088,1.065-0.263
		s0.478-0.405,0.623-0.689c0.145-0.285,0.24-0.607,0.285-0.968S-254.551,72.719-254.551,72.338z"/>
	<path d="M-246.63,75.233c-0.31,0.31-0.628,0.522-0.953,0.638c-0.325,0.114-0.743,0.172-1.252,0.172c-0.54,0-0.973-0.05-1.298-0.149
		c-0.325-0.101-0.603-0.271-0.832-0.511c-0.17-0.17-0.3-0.38-0.39-0.63c-0.09-0.25-0.135-0.51-0.135-0.78
		c0-0.659,0.223-1.172,0.667-1.537s1.062-0.548,1.853-0.548h2.34v-0.81c0-0.58-0.153-1.02-0.458-1.32
		c-0.305-0.3-0.833-0.449-1.583-0.449c-0.51,0-0.913,0.069-1.208,0.21c-0.295,0.14-0.558,0.375-0.788,0.704l-0.555-0.479
		c0.31-0.43,0.663-0.723,1.058-0.878c0.395-0.154,0.893-0.232,1.493-0.232c0.97,0,1.68,0.205,2.13,0.615s0.675,0.995,0.675,1.755
		v4.95h-0.765V75.233z M-248.88,72.503c-1.23,0-1.845,0.485-1.845,1.455c0,0.48,0.15,0.835,0.45,1.065
		c0.3,0.229,0.78,0.345,1.44,0.345c0.33,0,0.647-0.03,0.952-0.09c0.305-0.061,0.587-0.215,0.848-0.465
		c0.27-0.25,0.405-0.71,0.405-1.38v-0.931H-248.88z"/>
	<path d="M-237.901,73.898c0,0.66-0.257,1.183-0.772,1.567s-1.222,0.577-2.123,0.577c-0.63,0-1.183-0.085-1.657-0.255
		c-0.475-0.17-0.898-0.43-1.268-0.78l0.525-0.524c0.56,0.59,1.35,0.885,2.37,0.885c1.45,0,2.175-0.49,2.175-1.47
		c0-0.38-0.11-0.665-0.33-0.855c-0.22-0.189-0.57-0.31-1.05-0.359l-1.2-0.105c-1.45-0.12-2.175-0.75-2.175-1.89
		c0-0.63,0.235-1.13,0.705-1.5c0.47-0.37,1.1-0.556,1.89-0.556c0.51,0,0.98,0.067,1.41,0.203c0.43,0.135,0.805,0.322,1.125,0.562
		l-0.51,0.51c-0.56-0.41-1.235-0.615-2.025-0.615c-0.6,0-1.058,0.12-1.373,0.36s-0.473,0.585-0.473,1.035
		c0,0.38,0.118,0.665,0.353,0.854c0.235,0.19,0.607,0.311,1.118,0.36l1.17,0.104c0.3,0.03,0.58,0.08,0.84,0.15
		c0.26,0.07,0.482,0.175,0.667,0.314c0.185,0.141,0.333,0.325,0.442,0.556C-237.956,73.258-237.901,73.548-237.901,73.898z"/>
	<path d="M-224.671,72.233c0,0.569-0.065,1.058-0.195,1.462c-0.13,0.405-0.355,0.778-0.675,1.118c-0.35,0.39-0.77,0.692-1.26,0.907
		c-0.49,0.215-1.005,0.322-1.545,0.322c-0.51,0-0.995-0.095-1.455-0.285c-0.46-0.189-0.865-0.46-1.215-0.81
		c-0.24-0.24-0.428-0.49-0.562-0.75c-0.135-0.26-0.235-0.555-0.3-0.885s-0.103-0.713-0.112-1.147
		c-0.01-0.436-0.015-0.953-0.015-1.553c0-0.601,0.005-1.117,0.015-1.553c0.01-0.435,0.047-0.817,0.112-1.147s0.165-0.625,0.3-0.885
		c0.135-0.26,0.322-0.51,0.562-0.75c0.35-0.351,0.755-0.62,1.215-0.811c0.46-0.189,0.945-0.284,1.455-0.284
		c0.459,0,0.895,0.074,1.305,0.225s0.775,0.36,1.095,0.63c0.32,0.271,0.587,0.598,0.802,0.982c0.215,0.385,0.363,0.812,0.443,1.282
		h-0.81c-0.16-0.75-0.493-1.337-0.998-1.762c-0.505-0.426-1.118-0.638-1.837-0.638c-0.38,0-0.745,0.07-1.095,0.21
		s-0.66,0.345-0.93,0.615c-0.19,0.189-0.34,0.393-0.45,0.607c-0.11,0.215-0.193,0.47-0.248,0.765
		c-0.055,0.295-0.09,0.646-0.105,1.05c-0.015,0.405-0.022,0.893-0.022,1.463s0.007,1.058,0.022,1.462
		c0.015,0.405,0.05,0.756,0.105,1.051c0.055,0.295,0.137,0.55,0.248,0.765c0.11,0.215,0.26,0.418,0.45,0.607
		c0.27,0.271,0.58,0.476,0.93,0.615s0.715,0.21,1.095,0.21c0.42,0,0.825-0.088,1.215-0.263s0.725-0.433,1.005-0.772
		c0.23-0.29,0.395-0.6,0.495-0.93s0.15-0.726,0.15-1.186v-0.96h-2.865v-0.72h3.675V72.233z"/>
	<path d="M-220.307,75.953c-0.6,0-1.04-0.17-1.32-0.51c-0.28-0.34-0.42-0.795-0.42-1.365v-8.805h0.765v8.79
		c0,0.42,0.078,0.728,0.232,0.922c0.155,0.195,0.448,0.293,0.877,0.293h0.525v0.675H-220.307z"/>
	<path d="M-213.467,75.233c-0.31,0.31-0.628,0.522-0.953,0.638c-0.325,0.114-0.743,0.172-1.252,0.172
		c-0.54,0-0.973-0.05-1.298-0.149c-0.325-0.101-0.603-0.271-0.832-0.511c-0.17-0.17-0.3-0.38-0.39-0.63
		c-0.09-0.25-0.135-0.51-0.135-0.78c0-0.659,0.223-1.172,0.667-1.537s1.062-0.548,1.853-0.548h2.34v-0.81
		c0-0.58-0.153-1.02-0.458-1.32c-0.305-0.3-0.833-0.449-1.583-0.449c-0.51,0-0.913,0.069-1.208,0.21
		c-0.295,0.14-0.558,0.375-0.788,0.704l-0.555-0.479c0.31-0.43,0.663-0.723,1.058-0.878c0.395-0.154,0.893-0.232,1.493-0.232
		c0.97,0,1.68,0.205,2.13,0.615s0.675,0.995,0.675,1.755v4.95h-0.765V75.233z M-215.717,72.503c-1.23,0-1.845,0.485-1.845,1.455
		c0,0.48,0.15,0.835,0.45,1.065c0.3,0.229,0.78,0.345,1.44,0.345c0.33,0,0.647-0.03,0.952-0.09c0.305-0.061,0.587-0.215,0.848-0.465
		c0.27-0.25,0.405-0.71,0.405-1.38v-0.931H-215.717z"/>
	<path d="M-204.737,73.898c0,0.66-0.257,1.183-0.772,1.567s-1.222,0.577-2.123,0.577c-0.63,0-1.183-0.085-1.657-0.255
		c-0.475-0.17-0.898-0.43-1.268-0.78l0.525-0.524c0.56,0.59,1.35,0.885,2.37,0.885c1.45,0,2.175-0.49,2.175-1.47
		c0-0.38-0.11-0.665-0.33-0.855c-0.22-0.189-0.57-0.31-1.05-0.359l-1.2-0.105c-1.45-0.12-2.175-0.75-2.175-1.89
		c0-0.63,0.235-1.13,0.705-1.5c0.47-0.37,1.1-0.556,1.89-0.556c0.51,0,0.98,0.067,1.41,0.203c0.43,0.135,0.805,0.322,1.125,0.562
		l-0.51,0.51c-0.56-0.41-1.235-0.615-2.025-0.615c-0.6,0-1.058,0.12-1.373,0.36s-0.473,0.585-0.473,1.035
		c0,0.38,0.118,0.665,0.353,0.854c0.235,0.19,0.607,0.311,1.118,0.36l1.17,0.104c0.3,0.03,0.58,0.08,0.84,0.15
		c0.26,0.07,0.482,0.175,0.667,0.314c0.185,0.141,0.333,0.325,0.442,0.556C-204.792,73.258-204.737,73.548-204.737,73.898z"/>
	<path d="M-193.818,71.468c0-0.699-0.167-1.234-0.502-1.604s-0.833-0.555-1.493-0.555c-0.66,0-1.165,0.188-1.515,0.562
		c-0.35,0.375-0.525,0.907-0.525,1.597v4.485h-0.765v-10.68h0.765v4.305c0.54-0.63,1.25-0.945,2.13-0.945
		c0.84,0,1.495,0.238,1.965,0.713s0.705,1.138,0.705,1.987v4.62h-0.765V71.468z"/>
	<path d="M-185.988,75.233c-0.31,0.31-0.628,0.522-0.953,0.638c-0.325,0.114-0.743,0.172-1.252,0.172
		c-0.54,0-0.973-0.05-1.298-0.149c-0.325-0.101-0.603-0.271-0.832-0.511c-0.17-0.17-0.3-0.38-0.39-0.63
		c-0.09-0.25-0.135-0.51-0.135-0.78c0-0.659,0.223-1.172,0.667-1.537s1.062-0.548,1.853-0.548h2.34v-0.81
		c0-0.58-0.153-1.02-0.458-1.32c-0.305-0.3-0.833-0.449-1.583-0.449c-0.51,0-0.913,0.069-1.208,0.21
		c-0.295,0.14-0.558,0.375-0.788,0.704l-0.555-0.479c0.31-0.43,0.663-0.723,1.058-0.878c0.395-0.154,0.893-0.232,1.493-0.232
		c0.97,0,1.68,0.205,2.13,0.615s0.675,0.995,0.675,1.755v4.95h-0.765V75.233z M-188.238,72.503c-1.23,0-1.845,0.485-1.845,1.455
		c0,0.48,0.15,0.835,0.45,1.065c0.3,0.229,0.78,0.345,1.44,0.345c0.33,0,0.647-0.03,0.952-0.09c0.305-0.061,0.587-0.215,0.848-0.465
		c0.27-0.25,0.405-0.71,0.405-1.38v-0.931H-188.238z"/>
	<path d="M-180.663,75.953c-0.6,0-1.04-0.17-1.32-0.51c-0.28-0.34-0.42-0.795-0.42-1.365v-8.805h0.765v8.79
		c0,0.42,0.078,0.728,0.232,0.922c0.155,0.195,0.448,0.293,0.877,0.293h0.525v0.675H-180.663z"/>
	<path d="M-172.458,72.338c0,0.57-0.062,1.133-0.188,1.688c-0.125,0.556-0.373,1.018-0.743,1.388
		c-0.19,0.19-0.438,0.343-0.742,0.458c-0.305,0.114-0.647,0.172-1.027,0.172c-0.42,0-0.803-0.065-1.148-0.195
		c-0.345-0.129-0.677-0.404-0.997-0.824v0.93h-0.765v-10.68h0.765v4.38c0.32-0.42,0.652-0.695,0.997-0.825
		c0.345-0.13,0.728-0.195,1.148-0.195c0.38,0,0.722,0.058,1.027,0.173c0.305,0.115,0.552,0.268,0.742,0.457
		c0.37,0.37,0.618,0.833,0.743,1.388C-172.521,71.206-172.458,71.769-172.458,72.338z M-173.224,72.338
		c0-0.369-0.022-0.737-0.067-1.103c-0.045-0.364-0.14-0.689-0.285-0.975s-0.352-0.515-0.622-0.69
		c-0.27-0.175-0.625-0.262-1.065-0.262s-0.795,0.087-1.065,0.262c-0.27,0.176-0.478,0.405-0.623,0.69s-0.24,0.61-0.285,0.975
		c-0.045,0.365-0.067,0.733-0.067,1.103c0,0.381,0.022,0.75,0.067,1.11s0.14,0.683,0.285,0.968c0.145,0.284,0.353,0.515,0.623,0.689
		s0.625,0.263,1.065,0.263s0.795-0.088,1.065-0.263s0.477-0.405,0.622-0.689c0.145-0.285,0.24-0.607,0.285-0.968
		S-173.224,72.719-173.224,72.338z"/>
	<path d="M-164.749,75.953l-2.64-7.23h0.84l2.175,6.33l2.175-6.33h0.84l-2.64,7.23H-164.749z"/>
	<path d="M-154.444,72.338c0,0.521-0.055,1.04-0.165,1.561c-0.11,0.52-0.355,0.97-0.735,1.35c-0.53,0.53-1.2,0.795-2.01,0.795
		s-1.48-0.265-2.01-0.795c-0.38-0.38-0.625-0.83-0.735-1.35c-0.11-0.521-0.165-1.04-0.165-1.561c0-0.52,0.055-1.04,0.165-1.56
		c0.11-0.521,0.354-0.97,0.735-1.351c0.53-0.529,1.2-0.795,2.01-0.795s1.48,0.266,2.01,0.795c0.38,0.381,0.625,0.83,0.735,1.351
		C-154.499,71.298-154.444,71.818-154.444,72.338z M-155.209,72.338c0-0.21-0.005-0.425-0.015-0.645
		c-0.01-0.22-0.038-0.438-0.083-0.652c-0.045-0.215-0.11-0.418-0.195-0.607c-0.085-0.19-0.202-0.36-0.353-0.511
		c-0.41-0.409-0.91-0.614-1.5-0.614c-0.59,0-1.09,0.205-1.5,0.614c-0.15,0.15-0.268,0.32-0.353,0.511
		c-0.085,0.189-0.15,0.393-0.195,0.607s-0.073,0.433-0.083,0.652c-0.01,0.22-0.015,0.435-0.015,0.645s0.005,0.426,0.015,0.646
		c0.01,0.22,0.038,0.438,0.083,0.652s0.11,0.418,0.195,0.607c0.085,0.19,0.203,0.36,0.353,0.51c0.41,0.41,0.91,0.615,1.5,0.615
		c0.59,0,1.09-0.205,1.5-0.615c0.15-0.149,0.268-0.319,0.353-0.51c0.085-0.189,0.15-0.393,0.195-0.607
		c0.045-0.215,0.072-0.433,0.083-0.652C-155.214,72.764-155.209,72.548-155.209,72.338z"/>
	<path d="M-150.244,75.953c-0.6,0-1.04-0.17-1.32-0.51c-0.28-0.34-0.42-0.795-0.42-1.365v-8.805h0.765v8.79
		c0,0.42,0.078,0.728,0.232,0.922c0.155,0.195,0.448,0.293,0.877,0.293h0.525v0.675H-150.244z"/>
	<path d="M-145.939,75.953c-0.6,0-1.04-0.17-1.32-0.51c-0.28-0.34-0.42-0.795-0.42-1.365v-8.805h0.765v8.79
		c0,0.42,0.078,0.728,0.232,0.922c0.155,0.195,0.448,0.293,0.877,0.293h0.525v0.675H-145.939z"/>
	<path d="M-134.12,72.338c0,0.521-0.055,1.04-0.165,1.561c-0.11,0.52-0.355,0.97-0.735,1.35c-0.53,0.53-1.2,0.795-2.01,0.795
		s-1.48-0.265-2.01-0.795c-0.38-0.38-0.625-0.83-0.735-1.35c-0.11-0.521-0.165-1.04-0.165-1.561c0-0.52,0.055-1.04,0.165-1.56
		c0.11-0.521,0.354-0.97,0.735-1.351c0.53-0.529,1.2-0.795,2.01-0.795s1.48,0.266,2.01,0.795c0.38,0.381,0.625,0.83,0.735,1.351
		C-134.175,71.298-134.12,71.818-134.12,72.338z M-134.885,72.338c0-0.21-0.005-0.425-0.015-0.645
		c-0.01-0.22-0.038-0.438-0.083-0.652c-0.045-0.215-0.11-0.418-0.195-0.607c-0.085-0.19-0.202-0.36-0.353-0.511
		c-0.41-0.409-0.91-0.614-1.5-0.614c-0.59,0-1.09,0.205-1.5,0.614c-0.15,0.15-0.268,0.32-0.353,0.511
		c-0.085,0.189-0.15,0.393-0.195,0.607s-0.073,0.433-0.083,0.652c-0.01,0.22-0.015,0.435-0.015,0.645s0.005,0.426,0.015,0.646
		c0.01,0.22,0.038,0.438,0.083,0.652s0.11,0.418,0.195,0.607c0.085,0.19,0.203,0.36,0.353,0.51c0.41,0.41,0.91,0.615,1.5,0.615
		c0.59,0,1.09-0.205,1.5-0.615c0.15-0.149,0.268-0.319,0.353-0.51c0.085-0.189,0.15-0.393,0.195-0.607
		c0.045-0.215,0.072-0.433,0.083-0.652C-134.89,72.764-134.885,72.548-134.885,72.338z"/>
	<path d="M-127.206,75.023c-0.32,0.42-0.652,0.695-0.998,0.824c-0.345,0.13-0.728,0.195-1.147,0.195
		c-0.38,0-0.723-0.058-1.027-0.172c-0.305-0.115-0.553-0.268-0.743-0.458c-0.37-0.37-0.617-0.832-0.742-1.388
		c-0.125-0.555-0.188-1.117-0.188-1.688c0-0.569,0.062-1.132,0.188-1.688c0.125-0.555,0.372-1.018,0.742-1.388
		c0.19-0.189,0.438-0.342,0.743-0.457c0.305-0.115,0.647-0.173,1.027-0.173c0.42,0,0.803,0.065,1.147,0.195
		c0.345,0.13,0.678,0.405,0.998,0.825v-4.38h0.765v10.68h-0.765V75.023z M-127.206,72.338c0-0.369-0.022-0.737-0.067-1.103
		c-0.045-0.364-0.14-0.689-0.285-0.975s-0.353-0.515-0.623-0.69c-0.27-0.175-0.625-0.262-1.065-0.262s-0.795,0.087-1.065,0.262
		c-0.27,0.176-0.478,0.405-0.623,0.69s-0.24,0.61-0.285,0.975c-0.045,0.365-0.068,0.733-0.068,1.103c0,0.381,0.022,0.75,0.068,1.11
		c0.045,0.36,0.14,0.683,0.285,0.968c0.145,0.284,0.353,0.515,0.623,0.689s0.625,0.263,1.065,0.263s0.795-0.088,1.065-0.263
		s0.478-0.405,0.623-0.689c0.145-0.285,0.24-0.607,0.285-0.968S-127.206,72.719-127.206,72.338z"/>
	<path d="M-123.186,72.503c0,0.931,0.198,1.638,0.593,2.123c0.395,0.484,0.982,0.728,1.762,0.728c0.43,0,0.792-0.068,1.088-0.203
		c0.294-0.135,0.597-0.357,0.907-0.667l0.57,0.45c-0.18,0.18-0.363,0.34-0.548,0.479c-0.185,0.141-0.38,0.258-0.585,0.353
		s-0.427,0.165-0.667,0.21c-0.24,0.045-0.51,0.067-0.81,0.067c-1,0-1.762-0.314-2.288-0.945c-0.525-0.63-0.787-1.55-0.787-2.76
		c0-1.18,0.255-2.092,0.765-2.737c0.51-0.645,1.22-0.968,2.13-0.968c0.91,0,1.62,0.308,2.13,0.923
		c0.51,0.615,0.765,1.482,0.765,2.603v0.345H-123.186z M-118.925,71.888c-0.01-0.17-0.02-0.317-0.03-0.442
		c-0.01-0.125-0.022-0.237-0.037-0.337c-0.015-0.101-0.038-0.195-0.068-0.285c-0.03-0.09-0.07-0.19-0.12-0.3
		c-0.16-0.38-0.408-0.678-0.743-0.893s-0.712-0.322-1.132-0.322c-0.42,0-0.798,0.107-1.133,0.322s-0.583,0.513-0.742,0.893
		l-0.105,0.314c-0.03,0.09-0.053,0.183-0.068,0.277c-0.015,0.096-0.03,0.203-0.045,0.323s-0.027,0.27-0.038,0.449H-118.925z"/>
	<path d="M-111.621,69.878c-0.22-0.22-0.428-0.37-0.623-0.45c-0.195-0.079-0.442-0.119-0.743-0.119c-0.31,0-0.585,0.06-0.825,0.18
		c-0.24,0.12-0.442,0.28-0.607,0.479c-0.165,0.2-0.291,0.433-0.375,0.698c-0.085,0.265-0.127,0.542-0.127,0.832v4.455h-0.765v-7.23
		h0.765v0.961c0.21-0.34,0.507-0.601,0.892-0.78c0.385-0.181,0.792-0.271,1.223-0.271c0.35,0,0.663,0.051,0.938,0.15
		s0.542,0.28,0.803,0.54L-111.621,69.878z"/>
	<path d="M-100.926,71.468c0-0.699-0.167-1.234-0.502-1.604s-0.833-0.555-1.493-0.555c-0.66,0-1.165,0.188-1.515,0.562
		c-0.35,0.375-0.525,0.907-0.525,1.597v4.485h-0.765v-10.68h0.765v4.305c0.54-0.63,1.25-0.945,2.13-0.945
		c0.84,0,1.495,0.238,1.965,0.713s0.705,1.138,0.705,1.987v4.62h-0.765V71.468z"/>
	<path d="M-93.096,75.233c-0.31,0.31-0.628,0.522-0.953,0.638c-0.325,0.114-0.743,0.172-1.252,0.172c-0.54,0-0.973-0.05-1.298-0.149
		c-0.325-0.101-0.603-0.271-0.832-0.511c-0.17-0.17-0.3-0.38-0.39-0.63c-0.09-0.25-0.135-0.51-0.135-0.78
		c0-0.659,0.223-1.172,0.667-1.537s1.062-0.548,1.853-0.548h2.34v-0.81c0-0.58-0.153-1.02-0.458-1.32
		c-0.305-0.3-0.833-0.449-1.583-0.449c-0.51,0-0.913,0.069-1.208,0.21c-0.295,0.14-0.558,0.375-0.788,0.704l-0.555-0.479
		c0.31-0.43,0.663-0.723,1.058-0.878c0.395-0.154,0.893-0.232,1.493-0.232c0.97,0,1.68,0.205,2.13,0.615s0.675,0.995,0.675,1.755
		v4.95h-0.765V75.233z M-95.346,72.503c-1.23,0-1.845,0.485-1.845,1.455c0,0.48,0.15,0.835,0.45,1.065
		c0.3,0.229,0.78,0.345,1.44,0.345c0.33,0,0.647-0.03,0.952-0.09c0.305-0.061,0.587-0.215,0.848-0.465
		c0.27-0.25,0.405-0.71,0.405-1.38v-0.931H-95.346z"/>
	<path d="M-87.771,75.953c-0.6,0-1.04-0.17-1.32-0.51c-0.28-0.34-0.42-0.795-0.42-1.365v-8.805h0.765v8.79
		c0,0.42,0.078,0.728,0.232,0.922c0.155,0.195,0.448,0.293,0.877,0.293h0.525v0.675H-87.771z"/>
	<path d="M-79.567,72.338c0,0.57-0.062,1.133-0.188,1.688c-0.125,0.556-0.373,1.018-0.743,1.388c-0.19,0.19-0.438,0.343-0.742,0.458
		c-0.305,0.114-0.647,0.172-1.027,0.172c-0.42,0-0.803-0.065-1.148-0.195c-0.345-0.129-0.677-0.404-0.997-0.824v0.93h-0.765v-10.68
		h0.765v4.38c0.32-0.42,0.652-0.695,0.997-0.825c0.345-0.13,0.728-0.195,1.148-0.195c0.38,0,0.722,0.058,1.027,0.173
		c0.305,0.115,0.552,0.268,0.742,0.457c0.37,0.37,0.618,0.833,0.743,1.388C-79.629,71.206-79.567,71.769-79.567,72.338z
		 M-80.332,72.338c0-0.369-0.022-0.737-0.067-1.103c-0.045-0.364-0.14-0.689-0.285-0.975s-0.352-0.515-0.622-0.69
		c-0.27-0.175-0.625-0.262-1.065-0.262s-0.795,0.087-1.065,0.262c-0.27,0.176-0.478,0.405-0.623,0.69s-0.24,0.61-0.285,0.975
		c-0.045,0.365-0.067,0.733-0.067,1.103c0,0.381,0.022,0.75,0.067,1.11s0.14,0.683,0.285,0.968c0.145,0.284,0.353,0.515,0.623,0.689
		s0.625,0.263,1.065,0.263s0.795-0.088,1.065-0.263s0.477-0.405,0.622-0.689c0.145-0.285,0.24-0.607,0.285-0.968
		S-80.332,72.719-80.332,72.338z"/>
	<path d="M-71.542,75.953c-0.6,0-1.04-0.17-1.32-0.51c-0.28-0.34-0.42-0.795-0.42-1.365v-8.805h0.765v8.79
		c0,0.42,0.078,0.728,0.232,0.922c0.155,0.195,0.448,0.293,0.877,0.293h0.525v0.675H-71.542z"/>
	<path d="M-68.978,72.503c0,0.931,0.198,1.638,0.593,2.123c0.395,0.484,0.982,0.728,1.762,0.728c0.43,0,0.792-0.068,1.088-0.203
		c0.294-0.135,0.597-0.357,0.907-0.667l0.57,0.45c-0.18,0.18-0.363,0.34-0.548,0.479c-0.185,0.141-0.38,0.258-0.585,0.353
		s-0.427,0.165-0.667,0.21c-0.24,0.045-0.51,0.067-0.81,0.067c-1,0-1.762-0.314-2.288-0.945c-0.525-0.63-0.787-1.55-0.787-2.76
		c0-1.18,0.255-2.092,0.765-2.737c0.51-0.645,1.22-0.968,2.13-0.968c0.91,0,1.62,0.308,2.13,0.923
		c0.51,0.615,0.765,1.482,0.765,2.603v0.345H-68.978z M-64.717,71.888c-0.01-0.17-0.02-0.317-0.03-0.442
		c-0.01-0.125-0.022-0.237-0.037-0.337c-0.015-0.101-0.038-0.195-0.068-0.285c-0.03-0.09-0.07-0.19-0.12-0.3
		c-0.16-0.38-0.408-0.678-0.743-0.893s-0.712-0.322-1.132-0.322c-0.42,0-0.798,0.107-1.133,0.322s-0.583,0.513-0.742,0.893
		l-0.105,0.314c-0.03,0.09-0.053,0.183-0.068,0.277c-0.015,0.096-0.03,0.203-0.045,0.323s-0.027,0.27-0.038,0.449H-64.717z"/>
	<path d="M-61.133,72.503c0,0.931,0.198,1.638,0.593,2.123c0.395,0.484,0.982,0.728,1.762,0.728c0.43,0,0.792-0.068,1.088-0.203
		c0.294-0.135,0.597-0.357,0.907-0.667l0.57,0.45c-0.18,0.18-0.363,0.34-0.548,0.479c-0.185,0.141-0.38,0.258-0.585,0.353
		s-0.427,0.165-0.667,0.21c-0.24,0.045-0.51,0.067-0.81,0.067c-1,0-1.762-0.314-2.288-0.945c-0.525-0.63-0.787-1.55-0.787-2.76
		c0-1.18,0.255-2.092,0.765-2.737c0.51-0.645,1.22-0.968,2.13-0.968c0.91,0,1.62,0.308,2.13,0.923
		c0.51,0.615,0.765,1.482,0.765,2.603v0.345H-61.133z M-56.873,71.888c-0.01-0.17-0.02-0.317-0.03-0.442
		c-0.01-0.125-0.022-0.237-0.037-0.337c-0.015-0.101-0.038-0.195-0.068-0.285c-0.03-0.09-0.07-0.19-0.12-0.3
		c-0.16-0.38-0.408-0.678-0.743-0.893s-0.712-0.322-1.132-0.322c-0.42,0-0.798,0.107-1.133,0.322s-0.583,0.513-0.742,0.893
		l-0.105,0.314c-0.03,0.09-0.053,0.183-0.068,0.277c-0.015,0.096-0.03,0.203-0.045,0.323s-0.027,0.27-0.038,0.449H-56.873z"/>
	<path d="M-49.568,69.878c-0.22-0.22-0.428-0.37-0.623-0.45c-0.195-0.079-0.442-0.119-0.743-0.119c-0.31,0-0.585,0.06-0.825,0.18
		c-0.24,0.12-0.442,0.28-0.607,0.479c-0.165,0.2-0.291,0.433-0.375,0.698c-0.085,0.265-0.127,0.542-0.127,0.832v4.455h-0.765v-7.23
		h0.765v0.961c0.21-0.34,0.507-0.601,0.892-0.78c0.385-0.181,0.792-0.271,1.223-0.271c0.35,0,0.663,0.051,0.938,0.15
		s0.542,0.28,0.803,0.54L-49.568,69.878z"/>
	<path d="M-49.328,74.843h1.11v1.11h-1.11V74.843z"/>
</g>
<path fill="none" stroke="#D31F16" stroke-width="3" stroke-miterlimit="10" d="M-553.657,26.358h-5.99l-10.531-0.11l-0.181,0.11
	c-0.363,0.109-0.363,0.109-0.363,0.22c-0.181,0.11-0.181,0.219-0.181,0.33l7.987,44.314c0.182,1.539,1.631,2.309,4.176,2.529h20.15
	c0.183,0,0.183,0,0.183,0c2.723-0.221,3.994-0.99,4.177-2.529c0,0,5.556-37.701,6.218-40.745c0.213-0.979,1.013-3.624,0.508-3.917
	c-0.097-0.057-0.297-0.096-0.576-0.124c-0.136-0.013-3.398,0-3.568-0.008C-533.628,26.341-553.657,26.358-553.657,26.358z
	 M-530.057,29.522 M-537.501,68.694 M-564.508,29.858"/>
<path fill="none" stroke="#5EB030" stroke-width="3" stroke-miterlimit="10" d="M-496.653,26.358h-5.99l-10.531-0.11l-0.182,0.11
	c-0.363,0.109-0.363,0.109-0.363,0.22c-0.18,0.11-0.18,0.219-0.18,0.33l7.986,44.314c0.183,1.539,1.632,2.309,4.177,2.529h20.149
	c0.184,0,0.184,0,0.184,0c2.723-0.221,3.994-0.99,4.177-2.529c0,0,5.556-37.701,6.218-40.745c0.213-0.979,1.014-3.624,0.508-3.917
	c-0.096-0.057-0.297-0.096-0.575-0.124c-0.136-0.013-3.398,0-3.567-0.008C-476.626,26.341-496.653,26.358-496.653,26.358z
	 M-473.054,29.522 M-480.498,68.694 M-507.505,29.858"/>
<path fill="none" stroke="#FBEB4D" stroke-width="3" stroke-miterlimit="10" d="M-440.65,26.358h-5.99l-10.531-0.11l-0.182,0.11
	c-0.363,0.109-0.363,0.109-0.363,0.22c-0.18,0.11-0.18,0.219-0.18,0.33l7.986,44.314c0.184,1.539,1.633,2.309,4.178,2.529h20.148
	c0.184,0,0.184,0,0.184,0c2.723-0.221,3.994-0.99,4.178-2.529c0,0,5.555-37.701,6.217-40.745c0.213-0.979,1.014-3.624,0.508-3.917
	c-0.096-0.057-0.297-0.096-0.574-0.124c-0.137-0.013-3.398,0-3.568-0.008C-420.623,26.341-440.65,26.358-440.65,26.358z
	 M-417.051,29.522 M-424.494,68.694 M-451.502,29.858"/>
<path fill="none" stroke="#BF398C" stroke-width="3" stroke-miterlimit="10" d="M-386.646,26.358h-5.99l-10.531-0.11l-0.182,0.11
	c-0.363,0.109-0.363,0.109-0.363,0.22c-0.18,0.11-0.18,0.219-0.18,0.33l7.986,44.314c0.183,1.539,1.632,2.309,4.177,2.529h20.149
	c0.184,0,0.184,0,0.184,0c2.723-0.221,3.994-0.99,4.177-2.529c0,0,5.556-37.701,6.218-40.745c0.213-0.979,1.014-3.624,0.508-3.917
	c-0.096-0.057-0.297-0.096-0.575-0.124c-0.136-0.013-3.398,0-3.567-0.008C-366.619,26.341-386.646,26.358-386.646,26.358z
	 M-363.047,29.522 M-370.491,68.694 M-397.498,29.858"/>
<path fill="none" stroke="#000000" stroke-width="3" stroke-miterlimit="10" d="M-331.644,26.358h-5.99l-10.531-0.11l-0.182,0.11
	c-0.363,0.109-0.363,0.109-0.363,0.22c-0.18,0.11-0.18,0.219-0.18,0.33l7.986,44.314c0.183,1.539,1.632,2.309,4.177,2.529h20.149
	c0.184,0,0.184,0,0.184,0c2.723-0.221,3.994-0.99,4.177-2.529c0,0,5.556-37.701,6.218-40.745c0.213-0.979,1.014-3.624,0.508-3.917
	c-0.096-0.057-0.297-0.096-0.575-0.124c-0.136-0.013-3.398,0-3.567-0.008C-311.616,26.341-331.644,26.358-331.644,26.358z
	 M-308.044,29.522 M-315.488,68.694 M-342.495,29.858"/>
<g>
</g>
</svg>
