<?xml version="1.0" encoding="utf-8"?>
<!-- Generator: Adobe Illustrator 16.0.0, SVG Export Plug-In . SVG Version: 6.00 Build 0)  -->
<!DOCTYPE svg PUBLIC "-//W3C//DTD SVG 1.1//EN" "http://www.w3.org/Graphics/SVG/1.1/DTD/svg11.dtd">
<svg version="1.1" id="Ebene_1" xmlns="http://www.w3.org/2000/svg" xmlns:xlink="http://www.w3.org/1999/xlink" x="0px" y="0px"
	 width="180.449px" height="159.322px" viewBox="0 0 180.449 159.322" enable-background="new 0 0 180.449 159.322"
	 xml:space="preserve">
<g>
	<g>
		<path fill="#D32016" d="M25.644,58.971c2.351,6.219,4.093,8.504,7.075,14.579c2.894,5.896-1.395,11.821-7.075,11.821
			s-9.97-5.925-7.075-11.821C21.55,67.475,23.189,65.189,25.644,58.971z"/>
	</g>
</g>
<g>
	<path fill="#D32016" d="M50.771,75.242c0,0.72-0.146,1.36-0.439,1.92c-0.294,0.56-0.69,1.03-1.19,1.41
		c-0.5,0.38-1.083,0.667-1.75,0.86c-0.667,0.193-1.374,0.29-2.12,0.29c-0.547,0-1.066-0.03-1.561-0.09
		c-0.492-0.06-0.967-0.16-1.42-0.3s-0.879-0.33-1.279-0.57c-0.4-0.24-0.78-0.547-1.141-0.92l2.24-2.24
		c0.373,0.374,0.854,0.633,1.439,0.78c0.588,0.147,1.168,0.22,1.74,0.22c1.36,0,2.041-0.427,2.041-1.28
		c0-0.36-0.094-0.64-0.281-0.84c-0.199-0.2-0.513-0.327-0.939-0.38l-1.72-0.24c-1.267-0.187-2.22-0.606-2.86-1.26
		c-0.653-0.667-0.98-1.62-0.98-2.86c0-0.653,0.121-1.253,0.361-1.8c0.239-0.546,0.582-1.02,1.029-1.42s0.99-0.713,1.63-0.94
		c0.64-0.227,1.366-0.34,2.181-0.34c1.025,0,1.93,0.13,2.709,0.39c0.781,0.26,1.477,0.697,2.09,1.31l-2.199,2.2
		c-0.227-0.227-0.467-0.396-0.721-0.51c-0.253-0.113-0.5-0.196-0.739-0.25c-0.24-0.053-0.467-0.08-0.681-0.08
		c-0.213,0-0.399,0-0.56,0c-0.307,0-0.567,0.04-0.78,0.12c-0.213,0.08-0.39,0.184-0.529,0.31c-0.141,0.127-0.244,0.267-0.311,0.42
		c-0.066,0.154-0.1,0.31-0.1,0.47c0,0.093,0.02,0.2,0.061,0.32c0.039,0.12,0.112,0.233,0.219,0.34
		c0.094,0.093,0.217,0.18,0.371,0.26c0.152,0.08,0.355,0.133,0.609,0.16l1.721,0.24c1.252,0.174,2.186,0.567,2.799,1.18
		c0.387,0.374,0.66,0.82,0.82,1.34S50.771,74.575,50.771,75.242z"/>
	<path fill="#D32016" d="M58.092,79.602l-0.001-0.88c-0.333,0.333-0.673,0.58-1.02,0.74c-0.347,0.16-0.807,0.24-1.38,0.24
		c-0.547,0-1.037-0.083-1.471-0.25c-0.433-0.167-0.803-0.403-1.109-0.71s-0.54-0.677-0.7-1.11c-0.159-0.433-0.239-0.903-0.239-1.41
		c0-0.4,0.069-0.79,0.209-1.17c0.141-0.38,0.36-0.713,0.66-1c0.301-0.287,0.68-0.517,1.141-0.69c0.459-0.173,1.01-0.26,1.65-0.26
		h2.18v-0.283c0-0.5-0.127-0.851-0.381-1.053c-0.253-0.202-0.666-0.304-1.24-0.304c-0.426,0-0.753,0.054-0.979,0.16
		c-0.227,0.107-0.474,0.293-0.739,0.56l-2.041-2.03c0.28-0.278,0.554-0.506,0.82-0.685s0.557-0.324,0.87-0.437
		c0.313-0.112,0.649-0.192,1.011-0.238c0.359-0.046,0.766-0.069,1.219-0.069c1.543,0,2.716,0.32,3.518,0.96
		c0.803,0.64,1.203,1.62,1.203,2.94v6.98H58.092z M58.012,75.282h-1.66c-0.32,0-0.574,0.08-0.76,0.24
		c-0.188,0.16-0.28,0.367-0.28,0.62c0,0.24,0.09,0.45,0.271,0.63c0.18,0.18,0.449,0.27,0.809,0.27c0.32,0,0.57-0.023,0.75-0.07
		c0.181-0.047,0.363-0.157,0.551-0.33c0.213-0.2,0.32-0.56,0.32-1.08V75.282z"/>
	<path fill="#D32016" d="M69.512,79.602v-6.44c0-0.307-0.048-0.557-0.143-0.75c-0.094-0.193-0.211-0.343-0.352-0.45
		c-0.142-0.106-0.289-0.18-0.443-0.22s-0.285-0.06-0.393-0.06s-0.239,0.02-0.394,0.06s-0.302,0.113-0.443,0.22
		c-0.142,0.107-0.259,0.257-0.353,0.45s-0.141,0.443-0.141,0.75v6.44h-3.26v-10.76h3.192v0.88c0.333-0.333,0.725-0.583,1.177-0.75
		c0.453-0.167,0.893-0.25,1.318-0.25c0.505,0,0.961,0.08,1.367,0.24c0.404,0.16,0.754,0.387,1.047,0.68
		c0.466,0.467,0.762,0.954,0.889,1.46c0.125,0.507,0.189,1.047,0.189,1.62v6.88H69.512z"/>
	<path fill="#D32016" d="M83.911,78.822c0,0.64-0.118,1.227-0.353,1.76s-0.562,0.993-0.985,1.38s-0.936,0.69-1.538,0.91
		s-1.271,0.33-2.004,0.33c-0.84,0-1.587-0.096-2.24-0.288s-1.254-0.56-1.8-1.102l2.04-2.03c0.253,0.253,0.529,0.43,0.83,0.53
		c0.3,0.1,0.637,0.15,1.01,0.15c0.347,0,0.633-0.054,0.859-0.161c0.227-0.107,0.404-0.242,0.531-0.402
		c0.126-0.161,0.216-0.339,0.27-0.533c0.053-0.194,0.08-0.379,0.08-0.553v-0.785c-0.306,0.305-0.642,0.53-1.007,0.676
		c-0.366,0.146-0.8,0.218-1.306,0.218c-1.036,0-1.873-0.32-2.512-0.96c-0.238-0.24-0.428-0.5-0.567-0.78
		c-0.14-0.28-0.239-0.586-0.299-0.92s-0.097-0.7-0.11-1.1c-0.013-0.4-0.02-0.847-0.02-1.34s0.007-0.94,0.02-1.34
		c0.014-0.4,0.051-0.767,0.11-1.1c0.06-0.333,0.159-0.64,0.299-0.92c0.14-0.28,0.329-0.54,0.567-0.78
		c0.639-0.64,1.482-0.96,2.532-0.96c0.558,0,1.013,0.083,1.365,0.249c0.353,0.166,0.694,0.414,1.026,0.745v-0.873h3.2V78.822z
		 M80.611,73.822c0-0.283-0.01-0.552-0.03-0.808c-0.021-0.256-0.073-0.484-0.159-0.687c-0.088-0.202-0.218-0.363-0.391-0.484
		c-0.174-0.121-0.406-0.182-0.7-0.182c-0.307,0-0.544,0.061-0.71,0.182c-0.167,0.122-0.293,0.283-0.38,0.484
		c-0.087,0.202-0.14,0.431-0.16,0.687c-0.021,0.255-0.03,0.525-0.03,0.808s0.01,0.552,0.03,0.807
		c0.021,0.256,0.073,0.484,0.16,0.687c0.087,0.202,0.213,0.363,0.38,0.484c0.166,0.122,0.403,0.182,0.71,0.182
		c0.294,0,0.526-0.06,0.7-0.182c0.173-0.121,0.303-0.283,0.391-0.484c0.086-0.202,0.139-0.431,0.159-0.687
		C80.602,74.374,80.611,74.104,80.611,73.822z"/>
	<path fill="#D32016" d="M92.15,72.242c-0.16-0.16-0.326-0.293-0.5-0.4c-0.173-0.107-0.399-0.16-0.68-0.16
		c-0.107,0-0.236,0.02-0.39,0.06s-0.3,0.113-0.44,0.22c-0.14,0.107-0.257,0.257-0.35,0.45c-0.094,0.193-0.141,0.443-0.141,0.75v6.44
		h-3.26v-10.76h3.18l0.001,0.88c0.239-0.24,0.583-0.467,1.03-0.68c0.445-0.213,0.949-0.32,1.51-0.32c0.533,0,0.992,0.073,1.379,0.22
		c0.387,0.147,0.768,0.407,1.141,0.78L92.15,72.242z"/>
	<path fill="#D32016" d="M95.891,67.742v-2.5h3.26v2.5H95.891z M95.891,79.602v-10.34h3.26v10.34H95.891z"/>
	<path fill="#D32016" d="M106.871,79.602l-0.001-0.88c-0.333,0.333-0.673,0.58-1.02,0.74c-0.347,0.16-0.807,0.24-1.38,0.24
		c-0.547,0-1.037-0.083-1.471-0.25c-0.433-0.167-0.803-0.403-1.109-0.71s-0.54-0.677-0.7-1.11c-0.159-0.433-0.239-0.903-0.239-1.41
		c0-0.4,0.069-0.79,0.209-1.17c0.141-0.38,0.36-0.713,0.66-1c0.301-0.287,0.68-0.517,1.141-0.69c0.459-0.173,1.01-0.26,1.65-0.26
		h2.18v-0.283c0-0.5-0.127-0.851-0.381-1.053c-0.253-0.202-0.666-0.304-1.24-0.304c-0.426,0-0.753,0.054-0.979,0.16
		c-0.227,0.107-0.474,0.293-0.739,0.56l-2.041-2.03c0.28-0.278,0.554-0.506,0.82-0.685s0.557-0.324,0.87-0.437
		c0.313-0.112,0.649-0.192,1.011-0.238c0.359-0.046,0.766-0.069,1.219-0.069c1.543,0,2.716,0.32,3.518,0.96
		c0.803,0.64,1.203,1.62,1.203,2.94v6.98H106.871z M106.791,75.282h-1.66c-0.32,0-0.574,0.08-0.76,0.24
		c-0.188,0.16-0.28,0.367-0.28,0.62c0,0.24,0.09,0.45,0.271,0.63c0.18,0.18,0.449,0.27,0.809,0.27c0.32,0,0.57-0.023,0.75-0.07
		c0.181-0.047,0.363-0.157,0.551-0.33c0.213-0.2,0.32-0.56,0.32-1.08V75.282z"/>
</g>
<g>
	<g>
		<g>
			<path fill="#010202" d="M25.644,20.781c2.351,6.218,4.093,8.503,7.075,14.578c2.894,5.896-1.395,11.822-7.075,11.822
				s-9.97-5.926-7.075-11.822C21.55,29.284,23.189,26.999,25.644,20.781z"/>
		</g>
	</g>
	<g>
		<path fill="#010202" d="M48.832,36.531c0,0.84-0.152,1.573-0.458,2.2c-0.306,0.627-0.706,1.147-1.203,1.56
			c-0.497,0.414-1.068,0.724-1.712,0.93c-0.646,0.207-1.301,0.31-1.967,0.31c-0.828,0-1.537-0.114-2.131-0.34
			s-1.177-0.633-1.75-1.22l2.301-2.28c0.227,0.227,0.449,0.404,0.67,0.53c0.219,0.127,0.522,0.19,0.91,0.19
			c0.546,0,0.992-0.157,1.34-0.47c0.346-0.313,0.52-0.81,0.52-1.49v-9.28h3.48V36.531z"/>
		<path fill="#010202" d="M56.551,41.411v-0.88c-0.333,0.333-0.673,0.58-1.02,0.74c-0.347,0.16-0.807,0.24-1.38,0.24
			c-0.547,0-1.037-0.083-1.47-0.25c-0.434-0.167-0.804-0.403-1.11-0.71s-0.54-0.677-0.7-1.11c-0.16-0.433-0.24-0.903-0.24-1.41
			c0-0.4,0.07-0.79,0.211-1.17c0.14-0.38,0.359-0.713,0.66-1c0.299-0.287,0.68-0.517,1.139-0.69c0.461-0.173,1.011-0.26,1.65-0.26
			h2.18v-0.283c0-0.5-0.127-0.851-0.379-1.053c-0.254-0.202-0.668-0.304-1.24-0.304c-0.428,0-0.754,0.054-0.98,0.16
			c-0.227,0.107-0.473,0.293-0.74,0.56l-2.039-2.03c0.279-0.278,0.553-0.506,0.819-0.685s0.557-0.324,0.87-0.437
			c0.312-0.112,0.65-0.192,1.01-0.238c0.36-0.046,0.768-0.069,1.221-0.069c1.543,0,2.715,0.32,3.517,0.96s1.203,1.62,1.203,2.94
			v6.98H56.551z M51.832,29.231v-2.9h2.68v2.9H51.832z M56.471,37.091h-1.659c-0.32,0-0.573,0.08-0.761,0.24
			c-0.187,0.16-0.279,0.367-0.279,0.62c0,0.24,0.09,0.45,0.27,0.63c0.18,0.18,0.45,0.27,0.811,0.27c0.32,0,0.57-0.023,0.75-0.07
			s0.363-0.157,0.55-0.33c0.213-0.2,0.319-0.56,0.319-1.08V37.091z M56.332,29.231v-2.9h2.68v2.9H56.332z"/>
		<path fill="#010202" d="M70.791,40.631c0,0.64-0.117,1.227-0.352,1.76c-0.236,0.533-0.564,0.993-0.986,1.38
			c-0.423,0.387-0.936,0.69-1.538,0.91s-1.271,0.33-2.004,0.33c-0.841,0-1.587-0.096-2.24-0.288s-1.253-0.56-1.8-1.102l2.04-2.03
			c0.253,0.253,0.53,0.43,0.83,0.53s0.636,0.15,1.01,0.15c0.347,0,0.634-0.054,0.86-0.161c0.227-0.107,0.402-0.242,0.529-0.402
			c0.127-0.161,0.217-0.339,0.271-0.533s0.08-0.379,0.08-0.553v-0.785c-0.306,0.305-0.642,0.53-1.007,0.676
			s-0.801,0.218-1.306,0.218c-1.036,0-1.874-0.32-2.511-0.96c-0.24-0.24-0.43-0.5-0.568-0.78c-0.14-0.28-0.239-0.586-0.299-0.92
			c-0.061-0.333-0.097-0.7-0.109-1.1c-0.014-0.4-0.021-0.847-0.021-1.34s0.007-0.94,0.021-1.34c0.013-0.4,0.049-0.767,0.109-1.1
			c0.06-0.333,0.159-0.64,0.299-0.92c0.139-0.28,0.328-0.54,0.568-0.78c0.637-0.64,1.48-0.96,2.531-0.96
			c0.559,0,1.014,0.083,1.365,0.249c0.352,0.166,0.693,0.414,1.026,0.745v-0.873h3.2V40.631z M67.491,35.631
			c0-0.283-0.011-0.552-0.03-0.808c-0.02-0.256-0.073-0.484-0.16-0.687c-0.086-0.202-0.217-0.363-0.39-0.484
			c-0.173-0.121-0.407-0.182-0.7-0.182c-0.307,0-0.543,0.061-0.71,0.182c-0.167,0.122-0.294,0.283-0.38,0.484
			c-0.087,0.202-0.141,0.431-0.16,0.687c-0.02,0.255-0.029,0.525-0.029,0.808s0.01,0.552,0.029,0.807
			c0.02,0.256,0.073,0.484,0.16,0.687c0.086,0.202,0.213,0.363,0.38,0.484c0.167,0.122,0.403,0.182,0.71,0.182
			c0.293,0,0.527-0.06,0.7-0.182c0.173-0.121,0.304-0.283,0.39-0.484c0.087-0.202,0.141-0.431,0.16-0.687
			C67.48,36.183,67.491,35.914,67.491,35.631z"/>
		<path fill="#010202" d="M75.99,37.091c0,0.445,0.164,0.84,0.49,1.184c0.326,0.344,0.797,0.516,1.41,0.516
			c0.573,0,1.014-0.077,1.32-0.23c0.307-0.153,0.606-0.376,0.9-0.67l1.959,1.952c-0.279,0.278-0.56,0.52-0.84,0.725
			c-0.279,0.205-0.583,0.38-0.91,0.526c-0.326,0.146-0.689,0.255-1.09,0.328s-0.847,0.109-1.34,0.109c-0.6,0-1.202-0.07-1.807-0.21
			c-0.605-0.14-1.15-0.407-1.634-0.8c-0.483-0.393-0.882-0.95-1.192-1.67c-0.312-0.72-0.467-1.66-0.467-2.82
			c0-0.88,0.119-1.66,0.36-2.34c0.241-0.68,0.575-1.256,1.003-1.73c0.427-0.473,0.934-0.83,1.522-1.07
			c0.588-0.24,1.235-0.36,1.944-0.36c0.775,0,1.466,0.133,2.074,0.4c0.607,0.267,1.115,0.63,1.523,1.09
			c0.407,0.46,0.718,1,0.932,1.62c0.213,0.62,0.32,1.284,0.32,1.99v1.46H75.99z M79.211,34.931c0-0.135-0.014-0.273-0.041-0.415
			c-0.026-0.142-0.074-0.287-0.141-0.435c-0.107-0.229-0.275-0.428-0.503-0.597c-0.228-0.169-0.536-0.253-0.926-0.253
			s-0.698,0.084-0.926,0.253c-0.228,0.168-0.396,0.367-0.503,0.597c-0.066,0.148-0.113,0.293-0.141,0.435
			c-0.027,0.142-0.041,0.28-0.041,0.415H79.211z"/>
		<path fill="#010202" d="M90.211,34.051c-0.16-0.16-0.327-0.293-0.5-0.4c-0.174-0.107-0.4-0.16-0.681-0.16
			c-0.106,0-0.237,0.02-0.39,0.06c-0.154,0.04-0.301,0.113-0.439,0.22c-0.141,0.107-0.258,0.257-0.351,0.45
			c-0.094,0.193-0.14,0.443-0.14,0.75v6.44h-3.26v-10.76h3.18v0.88c0.24-0.24,0.582-0.467,1.029-0.68
			c0.447-0.213,0.95-0.32,1.51-0.32c0.533,0,0.994,0.073,1.381,0.22c0.387,0.147,0.766,0.407,1.14,0.78L90.211,34.051z"/>
		<path fill="#010202" d="M105.791,41.411v-6.456c0-0.308-0.048-0.558-0.142-0.752c-0.095-0.194-0.212-0.344-0.353-0.451
			c-0.142-0.107-0.289-0.181-0.443-0.221s-0.285-0.06-0.393-0.06s-0.239,0.02-0.394,0.06s-0.302,0.114-0.443,0.221
			s-0.259,0.257-0.353,0.451s-0.141,0.444-0.141,0.752v6.456h-3.26v-6.456c0-0.308-0.048-0.558-0.143-0.752
			c-0.094-0.194-0.211-0.344-0.352-0.451c-0.142-0.107-0.289-0.181-0.443-0.221s-0.285-0.06-0.393-0.06s-0.239,0.02-0.394,0.06
			s-0.302,0.114-0.443,0.221s-0.259,0.257-0.353,0.451s-0.141,0.444-0.141,0.752v6.456h-3.26v-10.76h3.18l0.02,0.873
			c0.332-0.331,0.726-0.579,1.178-0.745c0.453-0.166,0.893-0.249,1.318-0.249c0.532,0,1.015,0.09,1.447,0.27
			c0.432,0.18,0.822,0.47,1.168,0.87c0.466-0.413,0.932-0.707,1.398-0.88c0.465-0.173,1.011-0.26,1.637-0.26
			c0.506,0,0.988,0.08,1.447,0.24c0.459,0.16,0.836,0.387,1.129,0.68c0.465,0.467,0.777,0.954,0.938,1.46
			c0.16,0.507,0.24,1.047,0.24,1.62v6.88H105.791z"/>
		<path fill="#010202" d="M114.17,37.091c0,0.445,0.164,0.84,0.49,1.184c0.326,0.344,0.797,0.516,1.41,0.516
			c0.573,0,1.014-0.077,1.32-0.23c0.307-0.153,0.606-0.376,0.9-0.67l1.959,1.952c-0.279,0.278-0.56,0.52-0.84,0.725
			c-0.279,0.205-0.583,0.38-0.91,0.526c-0.326,0.146-0.689,0.255-1.09,0.328s-0.847,0.109-1.34,0.109c-0.6,0-1.202-0.07-1.807-0.21
			c-0.605-0.14-1.15-0.407-1.634-0.8c-0.483-0.393-0.882-0.95-1.192-1.67c-0.312-0.72-0.467-1.66-0.467-2.82
			c0-0.88,0.119-1.66,0.36-2.34c0.241-0.68,0.575-1.256,1.003-1.73c0.427-0.473,0.934-0.83,1.522-1.07
			c0.588-0.24,1.235-0.36,1.944-0.36c0.775,0,1.466,0.133,2.074,0.4c0.607,0.267,1.115,0.63,1.523,1.09
			c0.407,0.46,0.718,1,0.932,1.62c0.213,0.62,0.32,1.284,0.32,1.99v1.46H114.17z M117.391,34.931c0-0.135-0.014-0.273-0.041-0.415
			c-0.026-0.142-0.074-0.287-0.141-0.435c-0.107-0.229-0.275-0.428-0.503-0.597c-0.228-0.169-0.536-0.253-0.926-0.253
			s-0.698,0.084-0.926,0.253c-0.228,0.168-0.396,0.367-0.503,0.597c-0.066,0.148-0.113,0.293-0.141,0.435
			c-0.027,0.142-0.041,0.28-0.041,0.415H117.391z"/>
		<path fill="#010202" d="M122.631,29.551v-2.5h3.26v2.5H122.631z M122.631,41.411v-10.34h3.26v10.34H122.631z"/>
		<path fill="#010202" d="M136.689,37.891c0,0.64-0.127,1.187-0.379,1.64c-0.254,0.453-0.594,0.83-1.021,1.13s-0.92,0.52-1.479,0.66
			c-0.561,0.14-1.154,0.21-1.781,0.21c-0.399,0-0.799-0.014-1.199-0.04c-0.4-0.027-0.797-0.09-1.189-0.19
			c-0.395-0.1-0.781-0.253-1.16-0.46c-0.381-0.207-0.758-0.497-1.131-0.87l2.12-2.12c0.227,0.227,0.464,0.4,0.71,0.52
			s0.49,0.21,0.73,0.27s0.46,0.093,0.66,0.1c0.199,0.007,0.373,0.01,0.52,0.01c0.12,0,0.26-0.01,0.42-0.03s0.313-0.057,0.46-0.11
			c0.147-0.053,0.271-0.124,0.37-0.21c0.1-0.087,0.15-0.203,0.15-0.35c0-0.146-0.051-0.29-0.15-0.43s-0.311-0.223-0.63-0.25
			l-1.66-0.16c-0.467-0.04-0.89-0.126-1.271-0.26c-0.379-0.133-0.706-0.327-0.979-0.58c-0.273-0.253-0.487-0.566-0.64-0.94
			c-0.154-0.373-0.23-0.82-0.23-1.34c0-0.6,0.123-1.12,0.37-1.56s0.57-0.81,0.97-1.11c0.4-0.3,0.857-0.523,1.371-0.67
			c0.512-0.146,1.035-0.22,1.569-0.22c0.88,0,1.673,0.087,2.38,0.26c0.707,0.173,1.326,0.527,1.859,1.06l-2.02,2.02
			c-0.267-0.267-0.606-0.44-1.02-0.52c-0.414-0.08-0.834-0.12-1.26-0.12c-0.4,0-0.678,0.074-0.83,0.22
			c-0.154,0.147-0.23,0.28-0.23,0.4c0,0.027,0.004,0.07,0.01,0.13c0.007,0.06,0.03,0.12,0.07,0.18s0.106,0.12,0.2,0.18
			c0.093,0.06,0.233,0.097,0.42,0.11l1.659,0.16c0.561,0.053,1.047,0.173,1.461,0.36c0.413,0.187,0.75,0.427,1.01,0.72
			c0.26,0.293,0.453,0.627,0.58,1C136.627,37.064,136.689,37.464,136.689,37.891z"/>
		<path fill="#010202" d="M141.83,41.411c-0.597,0-1.104-0.096-1.521-0.289c-0.417-0.193-0.758-0.442-1.023-0.748
			c-0.265-0.306-0.46-0.645-0.586-1.018s-0.189-0.745-0.189-1.117v-4.628h-0.979v-2.54h0.979v-3.08h3.261v3.08h1.7v2.54h-1.7v4.4
			c0,0.44,0.22,0.66,0.659,0.66h1.041v2.74H141.83z"/>
		<path fill="#010202" d="M148.189,37.091c0,0.445,0.164,0.84,0.49,1.184c0.326,0.344,0.797,0.516,1.41,0.516
			c0.573,0,1.014-0.077,1.32-0.23c0.307-0.153,0.606-0.376,0.9-0.67l1.959,1.952c-0.279,0.278-0.56,0.52-0.84,0.725
			c-0.279,0.205-0.583,0.38-0.91,0.526c-0.326,0.146-0.689,0.255-1.09,0.328s-0.847,0.109-1.34,0.109c-0.6,0-1.202-0.07-1.807-0.21
			c-0.605-0.14-1.15-0.407-1.634-0.8c-0.483-0.393-0.882-0.95-1.192-1.67c-0.312-0.72-0.467-1.66-0.467-2.82
			c0-0.88,0.119-1.66,0.36-2.34c0.241-0.68,0.575-1.256,1.003-1.73c0.427-0.473,0.934-0.83,1.522-1.07
			c0.588-0.24,1.235-0.36,1.944-0.36c0.775,0,1.466,0.133,2.074,0.4c0.607,0.267,1.115,0.63,1.523,1.09
			c0.407,0.46,0.718,1,0.932,1.62c0.213,0.62,0.32,1.284,0.32,1.99v1.46H148.189z M151.41,34.931c0-0.135-0.014-0.273-0.041-0.415
			c-0.026-0.142-0.074-0.287-0.141-0.435c-0.107-0.229-0.275-0.428-0.503-0.597c-0.228-0.169-0.536-0.253-0.926-0.253
			s-0.698,0.084-0.926,0.253c-0.228,0.168-0.396,0.367-0.503,0.597c-0.066,0.148-0.113,0.293-0.141,0.435
			c-0.027,0.142-0.041,0.28-0.041,0.415H151.41z"/>
		<path fill="#010202" d="M162.41,34.051c-0.16-0.16-0.327-0.293-0.5-0.4c-0.174-0.107-0.4-0.16-0.681-0.16
			c-0.106,0-0.237,0.02-0.39,0.06c-0.154,0.04-0.301,0.113-0.439,0.22c-0.141,0.107-0.258,0.257-0.351,0.45
			c-0.094,0.193-0.14,0.443-0.14,0.75v6.44h-3.26v-10.76h3.18v0.88c0.24-0.24,0.582-0.467,1.029-0.68
			c0.447-0.213,0.95-0.32,1.51-0.32c0.533,0,0.994,0.073,1.381,0.22c0.387,0.147,0.766,0.407,1.14,0.78L162.41,34.051z"/>
	</g>
</g>
</svg>
